<?xml version="1.0" standalone="no"?><!DOCTYPE svg PUBLIC "-//W3C//DTD SVG 1.1//EN" "http://www.w3.org/Graphics/SVG/1.1/DTD/svg11.dtd"><svg t="1670277492863" class="icon" viewBox="0 0 1024 1024" version="1.1" xmlns="http://www.w3.org/2000/svg" p-id="9882" xmlns:xlink="http://www.w3.org/1999/xlink" width="200" height="200"><path d="M682.682 21.362L341.334 106.67v895.968l341.348-85.308zM341.334 1002.638L0.018 917.33V21.362l341.316 85.308zM1023.982 1002.638l-341.3-85.308V21.362l341.3 85.308z" fill="#A0D468" p-id="9883"></path><path d="M874.674 575.996c-5.5 0-10.938-2.094-15.124-6.25l-85.308-85.308c-8.312-8.344-8.312-21.844 0-30.188 8.312-8.312 21.844-8.312 30.188 0l85.308 85.342c8.312 8.312 8.312 21.844 0 30.154a21.284 21.284 0 0 1-15.064 6.25z" fill="#DA4453" p-id="9884"></path><path d="M618.684 831.986c-2.562 0-5.062-0.094-7.5-0.282-11.75-0.938-20.5-11.216-19.594-22.936 0.938-11.75 11.218-20.532 22.968-19.594 1.312 0.094 2.688 0.156 4.124 0.156 24.218 0 46.124-6.874 66.936-21.03 9.75-6.594 23.03-4.062 29.624 5.688 6.624 9.75 4.092 22.998-5.656 29.624-27.714 18.844-58.34 28.374-90.902 28.374z m-63.56-60.37c-9.436 0-18.108-6.376-20.608-15.938-6.296-24.094-9.454-54.06-9.938-94.402-0.14-11.782 9.296-21.436 21.078-21.56h0.282c11.624 0 21.186 9.374 21.31 21.06 0.438 36.248 3.25 63.746 8.562 84.09 2.938 11.406-3.876 23.062-15.25 26.032-1.812 0.498-3.624 0.718-5.436 0.718z m203.242-29.75c-3.938 0-7.938-1.094-11.5-3.376-9.906-6.376-12.812-19.562-6.438-29.466 13.812-21.592 26.468-47.404 37.562-76.684 4.188-11 16.5-16.562 27.5-12.376 10.998 4.156 16.56 16.468 12.374 27.498-12.124 32.032-26.092 60.498-41.498 84.558a21.344 21.344 0 0 1-18 9.846z m-210.49-149.37c-0.312 0-0.594-0.032-0.876-0.032-11.782-0.468-20.938-10.376-20.468-22.156l0.578-14.654c1.016-24.688 2.046-50.216 2.468-74.748 0.204-11.656 9.718-20.968 21.326-20.968h0.376c11.782 0.218 21.156 9.938 20.968 21.718-0.438 25.032-1.5 50.78-2.5 75.716l-0.594 14.624c-0.468 11.5-9.906 20.5-21.278 20.5z m0.53-179.744a21.344 21.344 0 0 1-21.218-19.342c-3.204-34.374-9.468-60.216-19.11-79.06-5.376-10.5-1.218-23.342 9.266-28.716s23.344-1.218 28.718 9.282c12.154 23.748 19.874 54.654 23.624 94.528 1.094 11.718-7.532 22.124-19.25 23.216-0.688 0.06-1.374 0.092-2.03 0.092z m-310.538-3.716c-3.562 0-7.188-0.906-10.514-2.782-10.234-5.844-13.828-18.844-8.016-29.094 16.842-29.654 36.576-55.216 58.686-75.966 8.592-8.06 22.092-7.624 30.156 0.968 8.062 8.594 7.624 22.094-0.968 30.156-18.968 17.812-36.046 39.966-50.764 65.904a21.38 21.38 0 0 1-18.58 10.814z m130.496-118.154c-8.704 0-16.876-5.344-20.03-14-4.046-11.062 1.656-23.312 12.718-27.376 26.952-9.844 56.216-14.844 86.95-14.844 3.452 0 6.906 0.156 10.234 0.406 11.734 0.876 20.546 11.124 19.672 22.844-0.89 11.75-11.124 20.562-22.876 19.688a102.906 102.906 0 0 0-7.03-0.25c-25.734 0-50.06 4.124-72.31 12.25a21.47 21.47 0 0 1-7.328 1.282z" fill="#434A54" p-id="9885"></path><path d="M789.334 575.996a21.354 21.354 0 0 1-15.094-6.25c-8.312-8.31-8.312-21.842 0-30.154l85.308-85.342c8.344-8.312 21.876-8.312 30.188 0 8.312 8.344 8.312 21.844 0 30.188l-85.308 85.308a21.354 21.354 0 0 1-15.094 6.25zM234.68 512c0 23.56-19.108 42.686-42.67 42.686S149.34 535.562 149.34 512s19.108-42.656 42.67-42.656c23.564 0 42.67 19.094 42.67 42.656z" fill="#ED5564" p-id="9886"></path><path d="M192.01 575.996c-35.296 0-63.998-28.716-63.998-63.996 0-35.282 28.702-64 63.998-64s63.998 28.718 63.998 64c0 35.28-28.702 63.996-63.998 63.996z m0-85.308c-11.764 0-21.328 9.562-21.328 21.312 0 11.78 9.562 21.342 21.328 21.342s21.328-9.562 21.328-21.342c0-11.75-9.562-21.312-21.328-21.312z" fill="#DA4453" p-id="9887"></path><path d="M682.682 21.362L341.334 106.67v895.968l341.348-85.308z" fill="#080808" opacity=".1" p-id="9888"></path></svg>