<?xml version="1.0" standalone="no"?><!DOCTYPE svg PUBLIC "-//W3C//DTD SVG 1.1//EN" "http://www.w3.org/Graphics/SVG/1.1/DTD/svg11.dtd"><svg t="1670535626454" class="icon" viewBox="0 0 1024 1024" version="1.1" xmlns="http://www.w3.org/2000/svg" p-id="3235" xmlns:xlink="http://www.w3.org/1999/xlink" width="200" height="200"><path d="M784.4 434.2c0-150.4-122-272.4-272.4-272.4s-272.4 122-272.4 272.4v467h544.8V434.2z" fill="#59C3F0" p-id="3236"></path><path d="M784.4 434.2c0-150.4-122-272.4-272.4-272.4-9.8 0-19.6 0.6-29.2 1.6C619.6 177.8 726 293.6 726 434.2v467h58.4V434.2z" fill="#21A0D6" p-id="3237"></path><path d="M239.6 434.2c0-150.4 122-272.4 272.4-272.4 9.8 0 19.6 0.6 29.2 1.6C404.4 177.8 298 293.6 298 434.2v467h-58.4V434.2z" fill="#96DCFA" p-id="3238"></path><path d="M784.4 910.8H239.6c-5.4 0-9.8-4.4-9.8-9.8V434.2C229.8 278.6 356.4 152 512 152s282.2 126.6 282.2 282.2h-9.8 9.8v467c0 2.6-1 5-2.8 6.8-2 1.8-4.4 2.8-7 2.8z m-535-19.4h525.4V434.2c0-144.8-117.8-262.6-262.6-262.6s-262.6 117.8-262.6 262.6v457.2z" fill="#402943" p-id="3239"></path><path d="M628.8 434.2c0 64.4-52.2 116.8-116.8 116.8-64.4 0-116.8-52.2-116.8-116.8h233.6z" fill="#FFFFFF" p-id="3240"></path><path d="M609.2 434.2c0 61.2-47 111.4-107 116.4 3.2 0.2 6.4 0.4 9.8 0.4 64.4 0 116.8-52.2 116.8-116.8h-19.6z" fill="#E6E7E8" p-id="3241"></path><path d="M414.8 434.2c0 61.2 47 111.4 107 116.4-3.2 0.2-6.4 0.4-9.8 0.4-64.4 0-116.8-52.2-116.8-116.8h19.6z" fill="#E6E7E8" p-id="3242"></path><path d="M512 560.6c-69.8 0-126.4-56.8-126.4-126.4 0-5.4 4.4-9.8 9.8-9.8h233.4c5.4 0 9.8 4.4 9.8 9.8-0.2 69.8-56.8 126.4-126.6 126.4z m-106.6-116.8c5 54.4 50.8 97.2 106.6 97.2s101.6-42.8 106.6-97.2H405.4z" fill="#402943" p-id="3243"></path><path d="M687.2 716.4H336.8c-5.4 0-9.8-4.4-9.8-9.8s4.4-9.8 9.8-9.8h350.2c5.4 0 9.8 4.4 9.8 9.8s-4.4 9.8-9.6 9.8z" fill="#402943" p-id="3244"></path><path d="M395.2 687.2c0-10.8-8.8-19.4-19.4-19.4-10.8 0-19.4 8.8-19.4 19.4v19.4h39l-0.2-19.4z" fill="#FCD64B" p-id="3245"></path><path d="M375.8 667.6v39h19.4v-19.4c0-10.8-8.6-19.6-19.4-19.6z" fill="#F5AB33" p-id="3246"></path><path d="M395.2 716.4h-39c-5.4 0-9.8-4.4-9.8-9.8v-19.4c0-16 13-29.2 29.2-29.2s29.2 13 29.2 29.2v19.4c0.2 5.4-4.2 9.8-9.6 9.8z m-29.2-19.6h19.4v-9.8c0-5.4-4.4-9.8-9.8-9.8s-9.8 4.4-9.8 9.8v9.8z m29.2-9.6z" fill="#402943" p-id="3247"></path><path d="M443.8 726c0 10.8 8.8 19.4 19.4 19.4s19.4-8.8 19.4-19.4v-19.4h-39l0.2 19.4z" fill="#FCD64B" p-id="3248"></path><path d="M463.4 745.6v-39h19.4v19.4c0 10.8-8.8 19.6-19.4 19.6z" fill="#F5AB33" p-id="3249"></path><path d="M463.4 755.2c-16 0-29.2-13-29.2-29.2v-19.4c0-5.4 4.4-9.8 9.8-9.8h39c5.4 0 9.8 4.4 9.8 9.8v19.4c-0.2 16.2-13.4 29.2-29.4 29.2z m-9.8-29.2c0 5.4 4.4 9.8 9.8 9.8s9.8-4.4 9.8-9.8v-9.8h-19.4l-0.2 9.8z" fill="#402943" p-id="3250"></path><path d="M541.2 726c0 10.8 8.8 19.4 19.4 19.4 10.8 0 19.4-8.8 19.4-19.4v-19.4h-39l0.2 19.4z" fill="#FCD64B" p-id="3251"></path><path d="M560.6 745.6v-39h19.4v19.4c0.2 10.8-8.6 19.6-19.4 19.6z" fill="#F5AB33" p-id="3252"></path><path d="M560.6 755.2c-16 0-29.2-13-29.2-29.2v-19.4c0-5.4 4.4-9.8 9.8-9.8h39c5.4 0 9.8 4.4 9.8 9.8v19.4c-0.2 16.2-13.2 29.2-29.4 29.2z m-9.6-29.2c0 5.4 4.4 9.8 9.8 9.8s9.8-4.4 9.8-9.8v-9.8h-19.4l-0.2 9.8z" fill="#402943" p-id="3253"></path><path d="M667.6 687.2c0-10.8-8.8-19.4-19.4-19.4-10.8 0-19.4 8.8-19.4 19.4v19.4h39l-0.2-19.4z" fill="#FCD64B" p-id="3254"></path><path d="M648.2 667.6v39h19.4v-19.4c0-10.8-8.6-19.6-19.4-19.6z" fill="#F5AB33" p-id="3255"></path><path d="M667.6 716.4h-39c-5.4 0-9.8-4.4-9.8-9.8v-19.4c0-16 13-29.2 29.2-29.2 16 0 29.2 13 29.2 29.2v19.4c0.2 5.4-4.2 9.8-9.6 9.8z m-29.2-19.6h19.4v-9.8c0-5.4-4.4-9.8-9.8-9.8s-9.8 4.4-9.8 9.8v9.8z m29.2-9.6z" fill="#402943" p-id="3256"></path><path d="M375.8 356.4c-21.4 0-39 17.4-39 39 0 21.4 17.4 39 39 39h272.4c21.4 0 39-17.4 39-39 0-21.4-17.4-39-39-39" fill="#59C3F0" p-id="3257"></path><path d="M648.2 356.4h-19.4c21.4 0 39 17.4 39 39 0 21.4-17.4 39-39 39h19.4c21.4 0 39-17.4 39-39s-17.4-39-39-39z" fill="#21A0D6" p-id="3258"></path><path d="M375.8 434.2h19.4c-21.4 0-39-17.4-39-39 0-21.4 17.4-39 39-39h-19.4c-21.4 0-39 17.4-39 39s17.4 39 39 39z" fill="#96DCFA" p-id="3259"></path><path d="M648.2 443.8H375.8c-26.8 0-48.6-21.8-48.6-48.6s21.8-48.6 48.6-48.6c5.4 0 9.8 4.4 9.8 9.8s-4.4 9.8-9.8 9.8c-16 0-29.2 13-29.2 29.2s13 29.2 29.2 29.2h272.4c16 0 29.2-13 29.2-29.2s-13-29.2-29.2-29.2c-5.4 0-9.8-4.4-9.8-9.8s4.4-9.8 9.8-9.8c26.8 0 48.6 21.8 48.6 48.6s-21.8 48.6-48.6 48.6z" fill="#402943" p-id="3260"></path><path d="M589.8 322.2h-155.6c-2.6 0-4.8-2.2-4.8-4.8 0-2.6 2.2-4.8 4.8-4.8h155.6c2.6 0 4.8 2.2 4.8 4.8 0 2.8-2 4.8-4.8 4.8z" fill="#402943" p-id="3261"></path><path d="M589.8 288.2h-155.6c-5.4 0-9.8-4.4-9.8-9.8s4.4-9.8 9.8-9.8h155.6c5.4 0 9.8 4.4 9.8 9.8s-4.4 9.8-9.8 9.8z" fill="#402943" p-id="3262"></path><path d="M570.4 434.2c0 32.2-26.2 58.4-58.4 58.4s-58.4-26.2-58.4-58.4h116.8z" fill="#4AB5AC" p-id="3263"></path><path d="M551 434.2c0 29-21 53-48.6 57.6 3.2 0.6 6.4 0.8 9.8 0.8 32.2 0 58.4-26.2 58.4-58.4h-19.6z" fill="#3F9991" p-id="3264"></path><path d="M473 434.2c0 29 21 53 48.6 57.6-3.2 0.6-6.4 0.8-9.8 0.8-32.2 0-58.4-26.2-58.4-58.4h19.6z" fill="#5BDED3" p-id="3265"></path><path d="M512 502.2c-37.6 0-68.2-30.6-68.2-68.2 0-5.4 4.4-9.8 9.8-9.8h116.8c5.4 0 9.8 4.4 9.8 9.8 0 37.8-30.6 68.2-68.2 68.2z m-47.6-58.4c4.6 22.2 24.2 39 47.6 39s43.2-16.8 47.6-39h-95.2z" fill="#402943" p-id="3266"></path><path d="M560.6 171.4c0-26.8-21.8-48.6-48.6-48.6s-48.6 21.8-48.6 48.6v107h97.2V171.4z" fill="#FCD64B" p-id="3267"></path><path d="M512 122.8c-3.4 0-6.6 0.4-9.8 1 22.2 4.6 39 24.2 39 47.6v107h19.4V171.4c0-26.8-21.8-48.6-48.6-48.6z" fill="#F5AB33" p-id="3268"></path><path d="M512 122.8c3.4 0 6.6 0.4 9.8 1-22.2 4.6-39 24.2-39 47.6v107h-19.4V171.4c0-26.8 21.8-48.6 48.6-48.6z" fill="#FFECA6" p-id="3269"></path><path d="M560.6 288.2h-97.2c-5.4 0-9.8-4.4-9.8-9.8V171.4c0-32.2 26.2-58.4 58.4-58.4s58.4 26.2 58.4 58.4v107c0 5.4-4.4 9.8-9.8 9.8z m-87.6-19.4h77.8V171.4c0-21.4-17.4-39-39-39-21.4 0-39 17.4-39 39v97.4z" fill="#402943" p-id="3270"></path><path d="M551 166.6h-77.8c-2.6 0-4.8-2.2-4.8-4.8s2.2-4.8 4.8-4.8h77.8c2.6 0 4.8 2.2 4.8 4.8s-2.2 4.8-4.8 4.8z" fill="#402943" p-id="3271"></path><path d="M551 205.6h-77.8c-2.6 0-4.8-2.2-4.8-4.8 0-2.6 2.2-4.8 4.8-4.8h77.8c2.6 0 4.8 2.2 4.8 4.8 0 2.6-2.2 4.8-4.8 4.8z" fill="#402943" p-id="3272"></path><path d="M551 244.4h-77.8c-2.6 0-4.8-2.2-4.8-4.8 0-2.6 2.2-4.8 4.8-4.8h77.8c2.6 0 4.8 2.2 4.8 4.8 0 2.6-2.2 4.8-4.8 4.8z" fill="#402943" p-id="3273"></path></svg>