<?xml version="1.0" standalone="no"?><!DOCTYPE svg PUBLIC "-//W3C//DTD SVG 1.1//EN" "http://www.w3.org/Graphics/SVG/1.1/DTD/svg11.dtd"><svg t="1672774552642" class="icon" viewBox="0 0 1024 1024" version="1.1" xmlns="http://www.w3.org/2000/svg" p-id="2638" xmlns:xlink="http://www.w3.org/1999/xlink" width="200" height="200"><path d="M554.666667 213.333333c0 35.413333-19.2 64-42.666667 64s-42.666667-28.586667-42.666667-64 19.2-85.333333 42.666667-85.333333 42.666667 49.92 42.666667 85.333333zM640 240c0 26.453333-14.293333 48-32 48s-32-21.333333-32-48S590.293333 170.666667 608 170.666667s32 42.666667 32 69.333333z" fill="#009688" p-id="2639"></path><path d="M384 240a48 32 90 1 0 64 0 48 32 90 1 0-64 0Z" fill="#009688" p-id="2640"></path><path d="M170.666667 149.333333s-105.6 53.546667-106.666667 149.333334c-1.706667 158.506667 149.333333 213.333333 149.333333 213.333333 64 0 85.333333-149.333333 85.333334-149.333333s-124.8 21.333333-163.413334-61.866667C104.746667 234.666667 170.666667 149.333333 170.666667 149.333333z" fill="#FFC107" p-id="2641"></path><path d="M113.706667 439.466667a207.786667 207.786667 0 0 1-42.666667-79.573334 125.013333 125.013333 0 0 1 61.653333-64l1.706667 4.48a98.346667 98.346667 0 0 0 46.293333 46.72 211.84 211.84 0 0 0-66.986666 92.373334zM170.666667 149.333333a240 240 0 0 0-42.666667 97.92 102.613333 102.613333 0 0 0-49.493333-7.04A231.04 231.04 0 0 1 170.666667 149.333333z" fill="#4DB6AC" p-id="2642"></path><path d="M853.333333 149.333333s106.666667 53.546667 106.666667 149.333334c1.706667 158.506667-149.333333 213.333333-149.333333 213.333333-64 0-85.333333-149.333333-85.333334-149.333333s124.8 21.333333 163.413334-61.866667C919.253333 234.666667 853.333333 149.333333 853.333333 149.333333z" fill="#FFC107" p-id="2643"></path><path d="M128 640c0 212.053333 171.946667 256 384 256s384-43.946667 384-256-222.933333-426.666667-384-426.666667S128 427.946667 128 640z" fill="#4DB6AC" p-id="2644"></path><path d="M810.666667 661.333333c0 42.666667-86.613333 149.333333-298.666667 149.333334s-298.666667-106.666667-298.666667-149.333334c0-212.053333 137.6-341.333333 298.666667-341.333333s298.666667 129.28 298.666667 341.333333z" fill="#FFC107" p-id="2645"></path><path d="M910.293333 439.466667a207.786667 207.786667 0 0 0 42.666667-79.573334 125.013333 125.013333 0 0 0-61.653333-64 38.4 38.4 0 0 1-1.706667 4.48 98.346667 98.346667 0 0 1-46.293333 46.72 211.84 211.84 0 0 1 66.986666 92.373334zM853.333333 149.333333a240 240 0 0 1 42.666667 97.92 103.253333 103.253333 0 0 1 49.706667-7.04A232.32 232.32 0 0 0 853.333333 149.333333z" fill="#4DB6AC" p-id="2646"></path><path d="M661.333333 469.333333a64 64 0 0 1-128 0l64-64a64 64 0 0 1 64 64z" fill="#FFFFFF" p-id="2647"></path><path d="M597.333333 693.333333m-32 0a32 32 0 1 0 64 0 32 32 0 1 0-64 0Z" fill="#FFFFFF" p-id="2648"></path><path d="M704 501.333333m-10.666667 0a10.666667 10.666667 0 1 0 21.333334 0 10.666667 10.666667 0 1 0-21.333334 0Z" fill="#FF6F00" p-id="2649"></path><path d="M746.666667 522.666667m-10.666667 0a10.666667 10.666667 0 1 0 21.333333 0 10.666667 10.666667 0 1 0-21.333333 0Z" fill="#FF6F00" p-id="2650"></path><path d="M704 544m-10.666667 0a10.666667 10.666667 0 1 0 21.333334 0 10.666667 10.666667 0 1 0-21.333334 0Z" fill="#FF6F00" p-id="2651"></path><path d="M768 672m-10.666667 0a10.666667 10.666667 0 1 0 21.333334 0 10.666667 10.666667 0 1 0-21.333334 0Z" fill="#FF6F00" p-id="2652"></path><path d="M320 501.333333m-10.666667 0a10.666667 10.666667 0 1 0 21.333334 0 10.666667 10.666667 0 1 0-21.333334 0Z" fill="#FF6F00" p-id="2653"></path><path d="M277.333333 522.666667m-10.666666 0a10.666667 10.666667 0 1 0 21.333333 0 10.666667 10.666667 0 1 0-21.333333 0Z" fill="#FF6F00" p-id="2654"></path><path d="M320 544m-10.666667 0a10.666667 10.666667 0 1 0 21.333334 0 10.666667 10.666667 0 1 0-21.333334 0Z" fill="#FF6F00" p-id="2655"></path><path d="M256 672m-10.666667 0a10.666667 10.666667 0 1 0 21.333334 0 10.666667 10.666667 0 1 0-21.333334 0Z" fill="#FF6F00" p-id="2656"></path><path d="M426.666667 693.333333m-32 0a32 32 0 1 0 64 0 32 32 0 1 0-64 0Z" fill="#FFFFFF" p-id="2657"></path><path d="M629.333333 469.333333a32 32 0 0 1-64 0l32-32a32 32 0 0 1 32 32z" fill="#37474F" p-id="2658"></path><path d="M362.666667 469.333333a64 64 0 0 0 128 0l-64-64a64 64 0 0 0-64 64z" fill="#FFFFFF" p-id="2659"></path><path d="M394.666667 469.333333a32 32 0 0 0 64 0L426.666667 437.333333a32 32 0 0 0-32 32zM256 576s100.266667 128 256 128 256-128 256-128-80.213333 170.666667-256 170.666667-256-170.666667-256-170.666667z" fill="#37474F" p-id="2660"></path></svg>