<?xml version="1.0" standalone="no"?><!DOCTYPE svg PUBLIC "-//W3C//DTD SVG 1.1//EN" "http://www.w3.org/Graphics/SVG/1.1/DTD/svg11.dtd"><svg t="1672774526498" class="icon" viewBox="0 0 1024 1024" version="1.1" xmlns="http://www.w3.org/2000/svg" p-id="2337" xmlns:xlink="http://www.w3.org/1999/xlink" width="200" height="200"><path d="M512 512m-512 0a512 512 0 1 0 1024 0 512 512 0 1 0-1024 0Z" fill="#84BF56" p-id="2338"></path><path d="M352 352a160 96 0 1 0 320 0 160 96 0 1 0-320 0Z" fill="#FFFFFF" p-id="2339"></path><path d="M512 352m-64 0a64 64 0 1 0 128 0 64 64 0 1 0-128 0Z" fill="#469FCC" p-id="2340"></path><path d="M512 960c-193.216 0-363.744-95.424-468.256-241.408C123.2 898.368 302.784 1024 512 1024s388.8-125.632 468.256-305.408C875.744 864.576 705.216 960 512 960z" fill="" p-id="2341"></path><path d="M672 608H352a64 64 0 0 0-64 64v32a64 64 0 0 0 64 64h320a64 64 0 0 0 64-64v-32a64 64 0 0 0-64-64z" fill="#E29460" p-id="2342"></path><path d="M672 608H352a64 64 0 0 0-64 64v32a64 64 0 0 1 64-64h320a64 64 0 0 1 64 64v-32a64 64 0 0 0-64-64z" fill="" p-id="2343"></path><path d="M384 640a32 32 0 1 0 64 0v-32h-64v32zM480 640a32 32 0 1 0 64 0v-32h-64v32zM576 608v32a32 32 0 1 0 64 0v-32h-64z" fill="#FFFFFF" p-id="2344"></path></svg>