<?xml version="1.0" standalone="no"?>
<!DOCTYPE svg PUBLIC "-//W3C//DTD SVG 20010904//EN"
 "http://www.w3.org/TR/2001/REC-SVG-20010904/DTD/svg10.dtd">
<svg version="1.0" xmlns="http://www.w3.org/2000/svg"
 width="391.000000pt" height="358.000000pt" viewBox="0 0 391.000000 358.000000"
 preserveAspectRatio="xMidYMid meet">

<g transform="translate(0.000000,358.000000) scale(0.100000,-0.100000)"
fill="#000000" stroke="none">
<path d="M1783 3196 c-96 -18 -198 -52 -250 -83 -52 -30 -111 -97 -121 -137
-6 -23 -22 -37 -72 -63 -142 -76 -240 -180 -361 -384 -127 -214 -196 -390
-243 -614 -51 -250 -58 -431 -22 -619 9 -44 15 -80 13 -81 -1 -1 -22 -10 -45
-20 -54 -23 -109 -86 -118 -134 -15 -79 53 -139 188 -167 40 -8 74 -17 76 -19
2 -2 -5 -17 -17 -33 -33 -47 -54 -146 -48 -225 9 -103 -4 -127 -85 -157 -30
-10 -36 -28 -16 -48 17 -17 35 -15 85 9 65 31 87 81 80 176 -7 89 10 168 49
226 15 23 29 44 31 46 2 4 237 -28 267 -36 15 -4 17 -11 12 -46 -4 -22 -1 -85
5 -139 14 -116 9 -135 -51 -173 -50 -31 -51 -58 -3 -63 26 -3 40 5 78 41 l46
44 -3 156 c-2 85 -1 158 2 161 3 3 79 2 168 -1 l162 -6 0 -66 c0 -36 7 -116
16 -177 10 -62 14 -118 11 -126 -3 -9 -19 -18 -37 -21 -26 -6 -31 -11 -28 -29
4 -32 64 -37 100 -9 34 27 38 58 22 165 -7 50 -14 130 -14 177 l0 86 140 7
c77 4 144 5 149 2 4 -3 11 -36 14 -73 3 -37 17 -101 31 -140 34 -95 34 -156 1
-199 -48 -62 0 -90 53 -30 52 59 53 127 6 252 -30 81 -34 180 -6 188 9 2 105
6 212 8 l195 3 3 -35 c6 -83 25 -170 53 -235 34 -82 36 -113 9 -148 -24 -30
-26 -55 -5 -63 23 -9 60 20 79 61 21 44 17 76 -24 175 -38 93 -57 218 -35 239
11 11 63 20 183 32 92 9 170 15 173 13 3 -2 9 -43 12 -91 4 -59 14 -111 32
-158 52 -137 51 -132 26 -159 -27 -29 -24 -60 5 -64 26 -4 84 59 84 91 0 12
-11 45 -23 72 -47 99 -58 149 -55 236 l3 83 80 14 c44 7 99 22 123 33 58 25
62 24 62 -8 0 -44 32 -85 133 -172 103 -88 124 -120 141 -216 9 -50 15 -61 33
-63 27 -4 37 25 28 85 -11 78 -42 132 -107 192 -171 157 -169 155 -162 198 4
29 2 42 -10 52 -9 8 -16 29 -16 50 0 20 -9 49 -19 64 -16 26 -18 43 -13 156 6
160 -8 282 -58 491 -21 91 -51 218 -65 284 -64 285 -104 363 -328 632 -130
157 -175 200 -271 258 -52 31 -63 44 -92 104 -38 79 -85 118 -185 153 -54 19
-89 23 -229 25 -109 2 -189 -1 -237 -10z m442 -72 c44 -13 72 -30 110 -67 27
-27 45 -51 39 -54 -6 -2 -53 7 -105 21 -131 34 -275 50 -378 43 -83 -7 -245
-41 -344 -73 -58 -19 -69 -13 -36 22 48 52 181 102 334 127 70 12 320 -1 380
-19z m-70 -140 c188 -35 335 -95 429 -176 62 -53 271 -304 335 -402 76 -116
97 -184 196 -610 65 -281 81 -424 65 -585 l-11 -104 26 -26 c29 -32 32 -52 8
-73 -49 -42 -137 -60 -428 -88 -349 -32 -536 -40 -1013 -40 -444 -1 -448 -1
-662 29 -118 17 -252 35 -297 42 -181 25 -227 94 -116 174 23 16 45 40 49 53
3 12 12 22 19 22 31 0 36 26 21 112 -35 194 -30 343 20 583 37 175 85 311 169
474 206 397 328 498 719 597 182 47 294 51 471 18z"/>
<path d="M1990 2870 c-95 -9 -164 -30 -292 -89 -71 -32 -102 -54 -166 -118
-80 -79 -122 -147 -122 -196 0 -15 -9 -54 -19 -85 -25 -74 -47 -289 -37 -366
6 -41 24 -92 64 -170 48 -95 69 -123 142 -196 157 -157 310 -216 535 -207 101
3 133 9 202 34 116 42 186 87 273 173 137 138 199 281 208 485 6 145 -4 197
-61 310 -52 105 -88 156 -167 238 -102 107 -151 135 -293 168 -129 30 -133 31
-267 19z m230 -92 c25 -6 83 -28 129 -50 66 -31 100 -56 160 -116 86 -87 131
-157 168 -264 50 -143 29 -318 -55 -463 -119 -204 -182 -264 -327 -309 -27 -8
-77 -25 -110 -36 -50 -18 -76 -21 -160 -18 -92 3 -105 7 -170 41 -38 20 -92
48 -120 61 -131 66 -259 233 -295 385 -20 86 -9 269 23 359 76 219 277 386
506 422 62 9 182 4 251 -12z"/>
<path d="M2285 2411 c-129 -60 -164 -213 -73 -317 87 -99 234 -98 315 1 55 67
63 145 23 225 -49 96 -167 137 -265 91z"/>
<path d="M2302 1378 c-28 -28 -7 -128 28 -128 25 0 34 34 23 91 -9 45 -28 60
-51 37z"/>
<path d="M1932 1348 c-15 -15 -16 -72 -2 -99 23 -42 60 -10 60 53 0 34 -14 58
-35 58 -6 0 -16 -5 -23 -12z"/>
<path d="M2880 1234 c-209 -82 -320 -103 -762 -149 -344 -35 -866 -6 -1089 60
-110 33 -131 33 -127 -2 3 -22 12 -29 58 -45 197 -67 659 -109 981 -89 290 19
601 57 743 93 109 27 344 118 351 136 6 16 -12 42 -29 42 -6 -1 -63 -21 -126
-46z"/>
<path d="M563 934 c-6 -3 -30 -51 -52 -107 -23 -56 -58 -133 -79 -172 -34 -63
-44 -73 -98 -100 -40 -21 -60 -37 -62 -51 -5 -33 19 -34 88 -6 55 23 69 35
104 87 56 82 148 312 135 337 -10 18 -15 20 -36 12z"/>
</g>
</svg>
