<?xml version="1.0" standalone="no"?>
<!DOCTYPE svg PUBLIC "-//W3C//DTD SVG 20010904//EN"
 "http://www.w3.org/TR/2001/REC-SVG-20010904/DTD/svg10.dtd">
<svg version="1.0" xmlns="http://www.w3.org/2000/svg"
 width="454.000000pt" height="366.000000pt" viewBox="0 0 454.000000 366.000000"
 preserveAspectRatio="xMidYMid meet">

<g transform="translate(0.000000,366.000000) scale(0.100000,-0.100000)"
fill="#000000" stroke="none">
<path d="M2100 3576 c-71 -21 -98 -34 -148 -68 -54 -36 -65 -49 -92 -100 l-20
-37 -52 24 c-76 34 -147 40 -242 20 -92 -19 -161 -51 -216 -101 -50 -45 -90
-125 -90 -180 0 -37 -4 -45 -45 -77 -64 -50 -100 -98 -130 -177 l-26 -69 -51
-11 c-79 -16 -241 -106 -313 -172 -58 -53 -115 -140 -115 -175 0 -8 -22 -46
-48 -86 -68 -102 -90 -161 -107 -289 -18 -132 -19 -199 -4 -251 8 -31 7 -48
-8 -90 -10 -31 -18 -84 -18 -132 -1 -60 -6 -87 -20 -108 -23 -36 -32 -159 -16
-223 9 -37 9 -58 -1 -96 -10 -43 -10 -59 5 -114 23 -88 71 -183 124 -243 40
-46 43 -53 37 -89 -9 -55 6 -75 78 -111 69 -35 127 -39 193 -16 60 22 75 19
82 -15 3 -17 10 -33 14 -36 14 -8 10 -40 -6 -54 -8 -7 -20 -30 -25 -51 -9 -33
-8 -47 8 -83 32 -71 106 -104 302 -131 63 -9 180 -27 260 -40 255 -42 334 -46
951 -48 485 -2 636 1 824 16 360 27 469 42 548 76 86 37 123 122 81 186 -9 14
-14 31 -11 38 5 14 70 37 103 37 10 0 29 11 43 24 15 13 45 33 68 46 40 22 43
22 82 6 74 -29 153 -15 200 35 52 56 13 111 -82 119 -47 4 -63 9 -65 22 -2 12
11 21 49 33 94 32 168 123 189 234 13 67 -2 116 -41 137 -28 14 -30 19 -24 52
3 20 13 46 21 57 8 11 30 43 49 70 41 58 65 130 65 194 0 95 -76 197 -165 223
-53 15 -62 23 -85 75 -15 34 -18 57 -14 106 4 44 1 72 -10 98 -16 38 -68 89
-90 89 -7 0 -25 19 -40 42 l-27 41 20 48 c12 26 21 58 21 70 0 70 -62 165
-140 214 -29 18 -39 33 -45 61 -3 21 -16 56 -27 78 -28 54 -129 159 -201 208
-44 30 -57 44 -51 56 16 39 16 119 0 150 -33 64 -87 86 -286 118 -58 9 -113
20 -122 25 -10 5 -22 28 -29 52 -25 94 -71 151 -154 188 -81 37 -225 18 -287
-38 -16 -15 -23 -14 -80 13 -53 24 -75 29 -143 29 -44 -1 -90 -6 -102 -13 -21
-11 -25 -9 -48 28 -52 82 -153 116 -255 86z m151 -61 c32 -17 69 -69 69 -97 0
-16 -10 -18 -78 -18 -45 0 -104 -8 -142 -19 -79 -22 -200 -36 -200 -23 0 20
47 78 85 104 48 33 146 67 198 67 21 1 51 -6 68 -14z m749 -102 c45 -18 90
-61 90 -86 0 -14 -4 -17 -17 -12 -39 16 -98 26 -124 20 -22 -5 -35 1 -68 31
-23 20 -41 42 -41 49 0 27 92 26 160 -2z m-421 -4 c39 -14 29 -30 -32 -54 -40
-15 -45 -15 -90 5 -26 12 -47 25 -47 31 0 26 111 38 169 18z m-905 -48 c3 -4
-19 -18 -48 -29 -65 -25 -226 -123 -277 -169 -62 -56 -72 -39 -29 47 34 67
107 116 213 145 59 16 133 19 141 6z m1126 -1 c0 -5 -4 -10 -10 -10 -5 0 -10
5 -10 10 0 6 5 10 10 10 6 0 10 -4 10 -10z m-1016 -26 c22 -9 20 -34 -3 -34
-19 0 -35 23 -24 34 8 7 8 7 27 0z m526 -43 c0 -80 -19 -84 -85 -18 -30 30
-55 58 -55 61 0 3 32 6 70 6 l70 0 0 -49z m115 19 c3 -6 -1 -13 -10 -16 -19
-8 -30 0 -20 15 8 14 22 14 30 1z m-300 -44 c63 -27 72 -83 24 -158 -17 -26
-33 -48 -35 -48 -1 0 -17 21 -35 48 -17 26 -50 66 -73 90 l-41 43 24 20 c28
23 87 25 136 5z m553 -54 c6 -66 -10 -73 -42 -16 -32 57 -32 62 -3 73 30 12
39 1 45 -57z m72 58 c0 -5 -2 -10 -4 -10 -3 0 -8 5 -11 10 -3 6 -1 10 4 10 6
0 11 -4 11 -10z m305 -12 c25 -12 45 -25 45 -29 0 -6 -53 -29 -66 -29 -9 0
-54 57 -54 67 0 19 24 16 75 -9z m-150 -25 c42 -46 42 -67 -2 -106 -21 -20
-58 -63 -83 -96 -44 -59 -75 -76 -86 -47 -3 8 15 34 44 63 52 52 78 119 66
168 -13 50 21 60 61 18z m-435 2 c0 -3 -11 -28 -25 -56 -21 -40 -30 -50 -48
-47 -17 2 -23 11 -25 35 -3 28 2 36 30 53 31 19 68 27 68 15z m-620 -34 c0
-17 -5 -33 -10 -36 -13 -8 -80 13 -80 25 0 15 43 40 67 40 19 0 23 -5 23 -29z
m723 -4 c26 -40 25 -62 -3 -64 -14 -1 -35 -5 -47 -8 -42 -13 -40 37 3 79 21
21 29 20 47 -7z m217 -11 c0 -8 -4 -18 -10 -21 -5 -3 -10 -16 -10 -29 0 -24
-44 -73 -53 -58 -11 16 5 51 30 67 13 9 22 22 19 30 -5 14 2 25 16 25 4 0 8
-6 8 -14z m373 -94 c-3 -37 -8 -69 -10 -72 -2 -3 -13 6 -24 20 -41 52 -41 57
-8 95 17 19 35 33 40 30 4 -3 5 -36 2 -73z m186 29 c60 -31 140 -134 128 -165
-3 -7 -29 -16 -57 -19 -29 -4 -68 -16 -88 -27 -52 -31 -54 -26 -56 128 -2 116
1 119 73 83z m-1546 -13 c44 -17 31 -73 -32 -132 -28 -27 -32 -28 -60 -16 -48
19 -53 31 -40 89 17 82 42 94 132 59z m-181 -14 c-1 -10 -5 -41 -8 -67 -4 -26
-10 -49 -13 -51 -3 -2 -27 -7 -53 -11 -43 -6 -48 -5 -48 12 0 10 23 47 51 81
49 61 77 75 71 36z m1896 6 c48 -29 64 -79 38 -115 -13 -18 -15 -17 -30 18 -8
21 -25 51 -36 67 -36 51 -25 62 28 30z m-2018 -2 c0 -6 -11 -26 -25 -44 -23
-30 -27 -32 -55 -21 -39 15 -35 37 10 59 40 21 70 23 70 6z m532 -24 c25 -40
33 -91 18 -109 -7 -8 -26 -15 -43 -15 -17 0 -39 -8 -49 -17 -25 -22 -54 -6
-50 28 1 13 4 51 6 84 2 33 4 60 5 60 1 0 22 0 48 0 41 -1 50 -5 65 -31z m391
-18 c6 -16 -2 -28 -14 -20 -12 7 -11 34 0 34 5 0 11 -6 14 -14z m-48 -68 c17
-23 35 -47 40 -55 13 -18 -6 -29 -73 -44 -91 -19 -122 3 -91 64 18 35 61 77
78 77 9 -1 30 -19 46 -42z m-967 -26 c5 -30 -26 -42 -44 -17 -23 31 -17 47 14
43 19 -2 28 -9 30 -26z m1212 -47 c-28 -29 -123 -67 -159 -63 -23 3 -20 6 32
46 85 64 184 77 127 17z m380 37 c0 -5 -11 -19 -24 -31 -18 -17 -26 -19 -32
-10 -4 7 2 19 16 31 24 19 40 23 40 10z m-1770 -46 c0 -18 -6 -39 -13 -45 -25
-20 -86 -41 -92 -31 -6 10 81 110 96 110 5 0 9 -15 9 -34z m1904 15 c7 -10
-22 -37 -30 -28 -9 8 3 37 15 37 5 0 12 -4 15 -9z m-1524 -17 c0 -17 -22 -14
-28 4 -2 7 3 12 12 12 9 0 16 -7 16 -16z m1270 -29 c0 -8 -7 -15 -15 -15 -16
0 -20 12 -8 23 11 12 23 8 23 -8z m350 -11 c0 -16 -14 -42 -34 -65 -21 -22
-38 -53 -42 -76 -7 -41 -58 -103 -84 -103 -32 0 -80 72 -80 119 0 13 16 26 51
40 28 12 76 42 107 66 66 51 82 55 82 19z m-1315 -1 c19 -9 35 -20 35 -24 0
-10 -71 -52 -123 -74 -33 -14 -38 -14 -43 0 -6 14 71 113 88 115 4 0 23 -8 43
-17z m239 -8 c10 -8 48 -24 82 -35 35 -12 64 -26 64 -31 0 -5 -2 -9 -4 -9 -16
0 -182 -34 -224 -47 -30 -8 -56 -12 -60 -9 -3 4 10 23 30 44 20 20 43 52 52
70 18 35 31 39 60 17z m872 3 c8 -12 -24 -40 -38 -32 -10 6 9 44 22 44 5 0 12
-5 16 -12z m-1523 -12 c7 -18 -1 -26 -25 -26 -18 0 -25 20 -11 33 11 12 31 8
36 -7z m227 -11 c0 -8 -7 -15 -15 -15 -8 0 -15 7 -15 15 0 8 7 15 15 15 8 0
15 -7 15 -15z m1000 9 c0 -4 -5 -24 -12 -45 -8 -28 -17 -39 -31 -39 -17 0 -18
5 -12 37 4 21 9 41 11 45 6 10 44 11 44 2z m-120 -45 c0 -17 -6 -20 -42 -17
-50 3 -52 18 -5 34 38 13 47 10 47 -17z m998 8 c19 -22 26 -67 11 -67 -24 0
-93 27 -97 38 -10 30 64 56 86 29z m-272 -22 c-22 -17 -36 -19 -36 -7 0 14 12
22 34 22 21 -1 21 -1 2 -15z m-1850 -25 c29 0 34 -3 34 -24 0 -19 -7 -26 -27
-30 -32 -7 -93 8 -104 25 -14 24 2 41 34 35 16 -3 45 -6 63 -6z m1394 -20 c42
-10 48 -15 72 -68 15 -31 33 -65 40 -74 14 -19 12 -23 -19 -32 -18 -6 -27 2
-58 48 -21 32 -56 67 -85 86 -34 22 -47 36 -43 47 4 9 14 13 27 9 12 -2 41
-10 66 -16z m-1566 -44 c3 -11 7 -49 10 -83 5 -59 4 -64 -22 -88 -15 -14 -34
-25 -42 -25 -18 0 -120 137 -120 162 0 11 6 15 19 11 14 -4 32 7 60 37 39 41
40 41 65 25 15 -10 28 -27 30 -39z m-314 16 c0 -38 -17 -52 -64 -52 -23 -1
-66 -9 -96 -20 -68 -24 -76 -24 -59 -3 15 18 185 103 206 103 8 0 13 -11 13
-28z m150 16 c0 -7 -4 -19 -9 -27 -11 -17 -25 3 -17 24 7 18 26 20 26 3z
m1507 -28 c61 -13 68 -21 77 -79 l7 -44 -33 6 c-18 4 -71 14 -118 23 -134 26
-300 22 -445 -10 -66 -15 -142 -33 -169 -41 -72 -22 -89 -20 -76 5 31 57 165
115 334 145 94 17 341 14 423 -5z m693 7 c0 -7 -5 -18 -12 -25 -7 -7 -18 -12
-25 -12 -19 0 -16 27 5 39 23 14 32 13 32 -2z m205 -11 c34 -15 74 -72 58 -86
-24 -21 -163 -78 -169 -69 -8 14 5 96 21 137 16 36 36 40 90 18z m256 -58 c25
-48 15 -60 -38 -48 -19 5 -36 10 -38 12 -7 8 36 89 45 83 6 -4 20 -25 31 -47z
m-2040 26 c26 -9 57 -13 77 -9 17 3 32 2 32 -4 0 -5 -16 -32 -35 -61 -19 -29
-35 -58 -35 -66 0 -15 -56 -54 -79 -54 -10 0 -11 9 -5 38 11 56 7 90 -16 119
-15 20 -17 29 -9 39 14 17 17 17 70 -2z m-308 -21 c11 -10 -13 -33 -34 -33
-12 0 -19 7 -19 20 0 14 7 20 23 20 13 0 27 -3 30 -7z m1381 -34 c27 -31 30
-41 20 -52 -18 -18 -74 38 -74 73 0 20 29 9 54 -21z m-1888 -14 c8 -20 -15
-75 -30 -75 -7 0 -17 5 -23 11 -19 19 -40 3 -54 -38 -6 -21 -33 -63 -59 -93
-26 -30 -61 -76 -79 -102 -42 -63 -75 -66 -90 -10 -21 74 -15 109 29 156 58
62 139 116 218 143 80 27 81 27 88 8z m664 -5 c0 -11 -2 -20 -4 -20 -2 0 -11
-3 -20 -6 -19 -7 -22 16 -4 34 18 18 28 15 28 -8z m1760 1 c0 -27 -30 -55 -43
-42 -8 8 -4 18 13 36 28 30 30 30 30 6z m-2282 -19 c3 -9 -3 -13 -19 -10 -12
1 -24 9 -27 16 -3 9 3 13 19 10 12 -1 24 -9 27 -16z m1439 -23 c229 -30 458
-121 573 -227 81 -74 309 -364 372 -472 60 -104 96 -222 154 -495 26 -121 55
-258 65 -305 41 -189 50 -476 17 -566 -11 -30 -9 -35 20 -69 18 -19 32 -44 32
-54 0 -43 -90 -84 -221 -101 -240 -30 -929 -64 -929 -46 0 4 17 28 39 54 21
26 46 61 55 79 18 37 14 36 225 58 79 8 184 25 234 36 94 22 372 120 390 138
12 12 2 40 -18 47 -8 3 -81 -19 -162 -49 -82 -30 -191 -64 -243 -75 -136 -29
-311 -54 -345 -50 -28 3 -30 6 -36 58 -7 66 -18 89 -60 124 -56 47 -137 29
-180 -40 l-22 -37 -24 29 c-12 16 -23 32 -23 35 0 4 -13 12 -29 19 -42 17 -91
-1 -135 -50 -33 -36 -42 -62 -48 -135 -3 -29 -4 -30 -63 -33 -70 -4 -318 13
-492 34 -144 17 -238 35 -349 69 -92 28 -120 31 -127 13 -13 -38 56 -70 243
-112 153 -35 583 -76 797 -76 l92 0 41 -61 c22 -33 40 -65 40 -70 0 -12 -576
-12 -715 1 -60 6 -166 20 -235 31 -69 11 -198 31 -288 44 -216 32 -281 61
-282 127 0 29 43 79 91 103 16 9 31 26 35 39 3 14 16 27 29 30 30 8 33 26 18
106 -20 107 -26 286 -14 390 42 340 136 618 306 901 199 329 324 424 678 515
211 54 334 65 494 43z m550 -21 c13 -17 36 -109 29 -116 -3 -3 -23 6 -43 20
-21 14 -51 32 -66 42 -32 19 -28 31 16 50 41 18 52 19 64 4z m188 -12 c20 -14
49 -28 66 -31 29 -7 31 -9 24 -43 -13 -70 -9 -93 26 -145 32 -49 31 -67 -2
-67 -63 0 -151 83 -201 187 -34 72 -34 104 2 114 41 11 47 10 85 -15z m534 -1
c12 -12 5 -23 -47 -75 -34 -34 -66 -59 -72 -55 -11 7 -14 138 -3 149 11 11
106 -4 122 -19z m-2149 -4 c0 -54 -178 -206 -207 -177 -4 3 -12 22 -19 42 -11
31 -10 36 4 40 43 14 118 51 160 80 55 39 62 40 62 15z m-585 -27 c20 -8 44
-54 37 -73 -5 -15 -102 -62 -114 -55 -13 8 -9 109 4 122 13 13 47 16 73 6z
m2875 -42 c44 -45 69 -96 55 -110 -3 -4 -12 -2 -19 3 -56 41 -74 49 -122 53
-30 3 -54 7 -52 11 14 29 66 90 77 91 8 0 36 -22 61 -48z m-380 3 c-7 -8 -21
-15 -32 -15 -17 0 -18 3 -8 15 7 8 21 15 32 15 17 0 18 -3 8 -15z m-2642 -62
c-2 -44 -7 -58 -18 -58 -10 0 -16 12 -18 34 -5 47 5 81 24 81 12 0 14 -11 12
-57z m412 -22 c0 -15 7 -36 15 -47 21 -28 18 -63 -9 -99 -29 -38 -131 -110
-144 -101 -5 3 -12 33 -16 67 l-6 61 73 78 c39 43 75 76 80 73 4 -2 7 -17 7
-32z m2274 7 c-3 -13 -13 -31 -21 -40 -19 -21 -89 -34 -107 -19 -21 17 -7 50
23 57 14 3 40 9 56 13 51 15 57 13 49 -11z m-2780 -62 c-3 -9 -10 -16 -14 -16
-5 0 -15 -3 -24 -6 -23 -9 -20 18 5 45 19 20 23 21 30 8 5 -8 6 -22 3 -31z
m3090 3 c14 -11 26 -29 26 -40 0 -17 -5 -18 -57 -13 -39 4 -80 1 -126 -11 -38
-9 -71 -14 -75 -10 -10 10 63 71 100 83 55 17 103 14 132 -9z m-3356 -47 c11
-31 10 -33 -29 -58 -23 -14 -43 -23 -46 -20 -8 8 7 60 28 95 22 36 30 33 47
-17z m489 2 c6 -16 -19 -44 -39 -44 -12 0 -10 34 4 48 16 16 27 15 35 -4z
m2543 -80 c-6 -16 -23 -44 -37 -63 l-26 -34 -19 23 c-32 39 -24 64 30 92 54
29 68 24 52 -18z m-2812 0 c4 -34 -13 -49 -45 -38 -35 12 -36 34 -3 51 31 16
44 12 48 -13z m3138 5 c8 -14 -65 -89 -134 -136 -53 -37 -53 -37 -95 -23 -39
14 -42 18 -45 57 -4 48 13 64 102 95 57 19 161 24 172 7z m-3048 -22 c2 -12
-3 -17 -17 -17 -12 0 -21 6 -21 13 0 31 32 34 38 4z m2555 -4 c4 -2 7 -10 7
-17 0 -7 13 -40 30 -72 61 -121 30 -126 -60 -9 -83 108 -86 119 -28 110 23 -4
46 -9 51 -12z m-2839 -11 c3 -5 8 -42 12 -83 l6 -75 -51 -37 c-28 -20 -54 -37
-57 -37 -10 0 -34 70 -34 101 0 65 99 170 124 131z m506 -21 c0 -25 -11 -33
-26 -20 -10 8 -11 16 -3 30 12 22 29 16 29 -10z m272 2 c-15 -37 -87 -153 -95
-153 -10 0 -71 59 -66 64 2 2 18 10 34 19 17 8 50 31 75 51 50 40 63 44 52 19z
m-619 -52 c9 -9 -40 -41 -62 -41 -13 0 -24 37 -15 51 7 12 62 5 77 -10z m187
-15 c0 -34 -18 -42 -42 -18 -24 24 -16 42 18 42 19 0 24 -5 24 -24z m3098 -49
c3 -25 0 -27 -32 -27 -42 0 -48 20 -14 44 29 21 42 16 46 -17z m90 -2 c17 -36
15 -75 -3 -75 -21 0 -32 26 -27 65 5 41 14 44 30 10z m-3290 -61 c41 -8 16
-94 -28 -94 -24 0 -84 75 -76 96 6 15 25 14 104 -2z m365 -28 c-3 -40 -46
-126 -63 -126 -14 0 -12 21 5 50 8 14 14 43 15 66 0 45 6 56 30 51 11 -2 14
-13 13 -41z m2795 4 c19 0 14 -18 -19 -67 -36 -52 -111 -103 -151 -103 -41 0
-36 18 27 98 55 71 73 83 110 76 11 -2 26 -4 33 -4z m-3290 -53 c26 -40 27
-43 6 -51 -25 -10 -44 12 -44 50 0 43 9 43 38 1z m2916 15 c4 -7 -20 -91 -29
-100 -6 -7 -46 72 -41 84 3 7 15 14 28 17 13 2 26 5 30 6 4 0 9 -3 12 -7z
m470 -8 c28 -11 18 -52 -23 -93 -38 -38 -125 -80 -138 -67 -4 3 16 28 43 55
28 26 59 62 70 79 19 34 23 36 48 26z m-3543 -95 c45 -23 107 -28 184 -16 44
7 53 5 79 -16 40 -33 27 -47 -44 -47 -32 0 -87 -9 -122 -20 -84 -26 -92 -25
-123 12 -35 42 -49 73 -42 92 8 21 20 20 68 -5z m3104 -79 c16 -17 16 -20 2
-26 -22 -8 -37 3 -37 27 0 24 12 24 35 -1z m668 -37 c82 -52 100 -176 41 -282
-33 -63 -47 -75 -74 -66 -26 8 -26 15 11 73 40 65 51 116 37 166 -12 38 -55
91 -92 112 -26 14 -12 37 17 28 12 -3 39 -17 60 -31z m-3823 -39 c0 -13 -42
-44 -60 -44 -11 0 -14 68 -4 95 6 14 11 12 35 -11 16 -15 29 -33 29 -40z m609
-20 c-61 -206 -71 -244 -78 -295 -5 -31 -13 -65 -19 -75 -10 -18 -11 -18 -18
0 -4 10 2 44 14 80 20 60 20 116 -2 167 -5 10 7 32 33 64 22 27 50 68 63 91
12 24 24 42 25 40 1 -1 -7 -34 -18 -72z m-73 51 c6 -15 -11 -45 -26 -45 -10 0
-21 41 -14 52 9 13 34 9 40 -7z m-265 -28 c-13 -13 -79 -15 -83 -2 -3 11 49
23 75 17 12 -3 15 -8 8 -15z m3035 10 c6 -18 -35 -109 -47 -102 -10 7 -13 98
-2 108 11 12 43 8 49 -6z m324 -5 c0 -43 -42 -54 -71 -19 -27 32 -24 37 26 37
37 0 45 -3 45 -18z m132 -57 c31 -36 32 -72 3 -130 -25 -51 -63 -90 -96 -97
-10 -2 -16 12 -20 57 -4 33 -10 76 -13 95 -6 31 -3 40 33 79 44 47 49 47 93
-4z m-232 -15 c11 -20 -3 -40 -41 -60 -14 -8 -20 -8 -24 2 -2 7 -9 26 -15 42
-15 40 1 58 41 44 16 -5 34 -18 39 -28z m-3200 6 c0 -8 -4 -17 -9 -21 -12 -7
-24 12 -16 25 9 15 25 12 25 -4z m2880 -96 c18 -88 18 -120 -1 -120 -9 0 -11
8 -33 115 -10 48 -11 75 -4 88 5 10 12 17 14 14 3 -3 14 -46 24 -97z m-2959
52 c32 -27 19 -52 -26 -52 -28 0 -35 4 -35 19 0 52 22 64 61 33z m3149 -23 c0
-20 -15 -26 -25 -9 -9 15 3 43 15 35 5 -3 10 -15 10 -26z m-3302 -8 c5 -35
-16 -75 -49 -95 -68 -40 -80 17 -17 81 45 46 61 50 66 14z m3486 -27 c13 -33
6 -141 -9 -154 -18 -15 -109 -7 -131 11 -15 12 -18 56 -6 77 10 15 112 80 128
81 7 1 15 -6 18 -15z m-3650 -95 l29 -60 -21 -21 c-30 -30 -48 -17 -55 39 -5
49 0 103 12 103 3 0 19 -27 35 -61z m371 21 c0 -17 -104 -46 -130 -36 -24 9
-17 25 13 31 15 3 38 10 52 14 35 13 65 9 65 -9z m11 -105 c17 -42 -31 -107
-107 -146 -58 -29 -79 -26 -79 14 0 18 4 37 9 43 5 5 11 22 13 38 3 27 9 31
63 47 77 22 94 22 101 4z m2981 -66 c22 -34 25 -44 15 -60 -17 -26 -15 -60 4
-87 14 -21 14 -25 0 -47 -9 -13 -16 -31 -16 -39 0 -20 35 -30 59 -17 30 17 31
15 31 -50 0 -45 -6 -71 -21 -95 -21 -35 -54 -60 -62 -47 -3 5 -8 46 -12 93
-11 116 -10 109 -44 255 -18 71 -29 135 -26 143 8 20 41 -2 72 -49z m453 37
c0 -18 -122 -116 -144 -116 -8 0 -20 9 -26 21 -9 17 -8 25 7 41 44 49 163 88
163 54z m-3686 -12 c3 -9 6 -42 6 -75 0 -71 -12 -80 -67 -52 -42 20 -52 47
-33 93 18 43 82 66 94 34z m3446 -9 c0 -15 -43 -12 -48 3 -3 10 4 13 22 10 15
-2 26 -7 26 -13z m-3090 -73 c0 -18 -28 -45 -38 -38 -16 10 -15 33 1 39 19 8
37 8 37 -1z m75 -69 c-6 -49 -7 -242 -2 -313 1 -16 -4 -26 -14 -28 -14 -3 -17
7 -15 62 1 76 -20 114 -75 132 -50 17 -50 46 0 90 22 20 52 54 67 75 37 54 48
50 39 -18z m3345 -36 c0 -30 -11 -67 -19 -67 -8 0 -30 92 -24 103 8 14 43 -14
43 -36z m-200 13 c0 -5 -7 -10 -16 -10 -8 0 -12 5 -9 10 3 6 10 10 16 10 5 0
9 -4 9 -10z m-3556 -42 c21 -30 20 -38 -4 -38 -26 0 -72 23 -89 44 -12 14 -8
16 32 16 36 0 49 -5 61 -22z m3434 -4 c26 -18 28 -44 5 -87 l-17 -32 -7 42
c-4 23 -13 51 -18 62 -6 11 -11 22 -11 25 0 11 26 6 48 -10z m-3503 -74 c22
-11 57 -20 78 -20 20 0 37 -4 37 -10 0 -5 -20 -31 -45 -56 -38 -40 -47 -45
-60 -34 -25 21 -95 134 -95 154 0 17 1 17 23 2 12 -9 40 -25 62 -36z m3713 15
c4 -29 -38 -88 -71 -99 -56 -20 -70 51 -21 105 23 26 88 22 92 -6z m-3348
-100 c17 -20 4 -34 -62 -70 -44 -24 -65 -29 -123 -29 -85 -1 -97 17 -37 57 75
49 197 72 222 42z m3179 -64 c8 -14 6 -27 -5 -50 -30 -60 -70 -26 -41 35 19
38 32 43 46 15z m-3185 -66 c-3 -8 -26 -28 -51 -44 -59 -39 -163 -53 -193 -26
-36 33 -25 43 38 39 43 -3 73 1 122 19 80 30 91 31 84 12z m2984 -35 c12 -16
22 -34 22 -39 0 -15 -58 -53 -70 -46 -11 7 -14 98 -3 108 13 14 30 6 51 -23z
m-2888 -31 c16 -28 -12 -72 -43 -67 -28 4 -35 43 -11 69 22 25 41 24 54 -2z
m3267 -10 l28 -11 -24 -19 c-44 -36 -154 -17 -138 25 8 19 89 23 134 5z m-232
-19 c9 -15 -14 -40 -36 -40 -21 0 -25 20 -7 38 15 15 35 15 43 2z m-1329 -77
c21 -23 24 -35 22 -77 l-3 -51 -78 -9 c-51 -6 -81 -6 -88 1 -13 13 23 110 51
141 28 30 66 28 96 -5z m-236 -47 c20 -37 22 -50 14 -73 -9 -27 -13 -28 -80
-31 -81 -3 -88 2 -74 62 15 69 63 115 100 96 8 -5 26 -29 40 -54z m210 -164
c0 -18 -53 -83 -80 -97 -50 -26 -85 -20 -119 22 -49 59 -43 71 37 76 139 7
162 7 162 -1z"/>
<path d="M2395 2400 c-68 -8 -146 -32 -270 -84 -155 -65 -325 -244 -325 -342
0 -16 -9 -52 -20 -81 -36 -96 -62 -313 -49 -415 10 -83 74 -225 144 -323 95
-134 264 -256 410 -296 115 -31 250 -23 453 26 122 30 164 44 211 75 209 135
332 353 356 630 16 197 -67 403 -237 587 -92 100 -183 171 -231 180 -17 3 -72
16 -122 29 -94 25 -181 29 -320 14z m302 -96 c182 -47 355 -187 445 -359 76
-147 101 -282 74 -397 -24 -102 -55 -194 -75 -220 -10 -13 -27 -41 -39 -63
-11 -22 -47 -74 -80 -116 -69 -88 -158 -152 -231 -168 -27 -6 -80 -22 -117
-36 -83 -32 -199 -43 -282 -26 -62 12 -168 60 -216 99 -16 12 -34 22 -41 22
-21 0 -127 88 -172 143 -56 68 -128 210 -143 283 -18 85 -7 285 21 366 70 209
222 372 420 448 131 50 298 60 436 24z"/>
<path d="M2755 1891 c-47 -22 -99 -74 -114 -114 -18 -46 -13 -143 8 -185 44
-86 108 -126 201 -127 54 0 73 5 113 28 55 33 102 99 112 158 16 92 -43 201
-129 240 -53 24 -139 24 -191 0z"/>
</g>
</svg>
