<?xml version="1.0" standalone="no"?>
<!DOCTYPE svg PUBLIC "-//W3C//DTD SVG 20010904//EN"
 "http://www.w3.org/TR/2001/REC-SVG-20010904/DTD/svg10.dtd">
<svg version="1.0" xmlns="http://www.w3.org/2000/svg"
 width="188.000000pt" height="156.000000pt" viewBox="0 0 188.000000 156.000000"
 preserveAspectRatio="xMidYMid meet">

<g transform="translate(0.000000,156.000000) scale(0.100000,-0.100000)"
fill="#000000" stroke="none">
<path d="M619 1373 c-9 -10 -14 -40 -14 -80 l0 -63 -68 75 c-38 41 -76 75 -84
75 -9 0 -37 -21 -63 -48 -49 -49 -72 -103 -83 -198 l-5 -42 44 -6 c37 -5 163
-42 172 -51 1 -1 -9 -25 -23 -53 -14 -27 -25 -57 -25 -66 0 -18 30 -36 59 -36
32 0 33 -14 5 -76 -28 -63 -68 -211 -79 -286 -6 -49 -9 -51 -75 -63 -29 -5
-40 -2 -62 18 -15 14 -30 38 -33 54 -11 46 -14 53 -25 53 -30 0 4 -96 46 -129
25 -20 37 -22 86 -17 l56 6 9 -62 c4 -35 14 -63 21 -66 10 -3 11 10 6 62 l-7
66 69 0 c46 0 83 7 111 19 42 19 69 53 58 71 -10 16 -22 12 -28 -9 -10 -40
-62 -57 -164 -53 -40 2 -43 4 -43 30 1 49 38 200 68 270 42 102 117 216 174
267 54 49 125 75 248 95 235 36 360 -11 498 -190 82 -108 105 -161 135 -312
l21 -107 -24 -26 c-31 -33 -55 -32 -97 5 -40 36 -66 30 -31 -7 49 -53 98 -62
140 -26 11 10 18 11 23 3 8 -14 9 -216 0 -229 -3 -6 0 -19 6 -29 7 -11 9 -26
6 -35 -14 -36 -78 -42 -502 -42 -405 0 -412 0 -552 27 -79 15 -152 32 -163 38
-28 15 -25 45 7 68 34 25 22 42 -15 21 -39 -21 -51 -63 -26 -90 27 -30 44 -35
221 -65 150 -25 177 -26 518 -27 469 -1 554 13 542 86 -3 18 -7 94 -9 170 l-4
137 35 0 c43 1 62 14 84 57 29 55 18 136 -25 190 -22 28 -27 -1 -7 -35 30 -49
30 -122 2 -160 -17 -22 -28 -27 -58 -25 -21 2 -40 5 -42 7 -3 3 -16 57 -29
120 -32 150 -46 181 -137 302 -80 107 -162 172 -244 196 -81 24 -351 3 -424
-33 -19 -10 -27 -4 -67 47 -28 37 -32 49 -32 103 0 80 -20 121 -59 121 -16 0
-35 -7 -42 -17z m57 -14 c4 -7 0 -15 -8 -20 -12 -7 -15 -22 -11 -69 5 -60 -8
-84 -21 -37 -20 76 10 174 40 126z m-236 -31 c0 -6 -18 -49 -41 -96 -40 -84
-45 -119 -9 -72 11 14 33 56 49 95 16 38 33 70 38 71 4 1 41 -36 81 -82 l74
-85 -43 -47 c-23 -26 -45 -50 -49 -55 -3 -4 -24 1 -46 12 -21 10 -65 25 -96
32 l-58 14 0 43 c0 49 20 101 56 149 25 34 44 42 44 21z m260 -51 c0 -18 -5
-39 -10 -47 -7 -11 -10 0 -10 38 0 33 4 51 10 47 6 -3 10 -21 10 -38z m34
-130 c27 -35 33 -57 16 -57 -20 0 -89 -72 -130 -135 -23 -35 -47 -62 -53 -60
-7 2 -25 6 -40 10 -26 5 -28 9 -22 33 3 15 21 50 40 77 35 53 141 165 155 165
5 0 20 -15 34 -33z"/>
<path d="M991 1058 c-46 -16 -79 -36 -117 -72 -49 -46 -55 -58 -74 -130 -11
-44 -20 -106 -20 -139 0 -114 80 -231 198 -289 39 -19 63 -23 137 -23 76 0 99
4 146 26 72 34 134 96 167 168 23 47 27 70 27 141 0 106 -27 168 -107 252 -63
65 -96 78 -213 84 -64 3 -93 0 -144 -18z m251 -36 c109 -48 183 -158 183 -273
0 -54 -6 -76 -34 -132 -47 -92 -99 -138 -188 -165 -94 -29 -129 -28 -199 8
-82 41 -125 79 -159 141 -26 48 -30 64 -30 134 1 95 25 159 83 218 89 92 229
120 344 69z"/>
<path d="M1201 834 c-80 -67 3 -194 100 -154 63 26 78 95 33 149 -34 41 -88
43 -133 5z"/>
<path d="M1047 353 c-10 -10 -8 -53 2 -53 14 0 25 40 14 51 -5 5 -12 6 -16 2z"/>
<path d="M1218 354 c-8 -8 3 -44 13 -44 5 0 9 11 9 25 0 24 -10 32 -22 19z"/>
<path d="M1467 275 c-186 -65 -586 -72 -825 -14 -93 23 -127 20 -68 -6 71 -30
178 -46 361 -52 226 -7 416 8 528 43 83 26 132 55 92 53 -11 0 -51 -11 -88
-24z"/>
</g>
</svg>
