<?xml version="1.0" standalone="no"?><!DOCTYPE svg PUBLIC "-//W3C//DTD SVG 1.1//EN" "http://www.w3.org/Graphics/SVG/1.1/DTD/svg11.dtd"><svg t="1670272603824" class="icon" viewBox="0 0 1024 1024" version="1.1" xmlns="http://www.w3.org/2000/svg" p-id="2710" xmlns:xlink="http://www.w3.org/1999/xlink" width="200" height="200"><path d="M149.989688 874.093352a509.948138 509.948138 0 1 0-109.714286-162.700613 513.206978 513.206978 0 0 0 109.714286 162.700613z" fill="#4D4D4D" p-id="2711"></path><path d="M429.646454 687.977369a57.331447 57.331447 0 0 0 27.277699 7.000472 60.348892 60.348892 0 0 0 32.829797-10.017916l175.977369-115.990571a68.677039 68.677039 0 0 0 30.777935-58.055634 66.504479 66.504479 0 0 0-29.812353-56.486563l-177.54644-115.749175a57.934936 57.934936 0 0 0-60.348892-3.017445 67.832155 67.832155 0 0 0-33.312588 60.348893V627.628477a67.470061 67.470061 0 0 0 34.157473 60.348892z" fill="#FFFFFF" p-id="2712"></path></svg>