<?xml version="1.0" standalone="no"?>
<!DOCTYPE svg PUBLIC "-//W3C//DTD SVG 20010904//EN"
 "http://www.w3.org/TR/2001/REC-SVG-20010904/DTD/svg10.dtd">
<svg version="1.0" xmlns="http://www.w3.org/2000/svg"
 width="506.000000pt" height="446.000000pt" viewBox="0 0 506.000000 446.000000"
 preserveAspectRatio="xMidYMid meet">

<g transform="translate(0.000000,446.000000) scale(0.100000,-0.100000)"
fill="#000000" stroke="none">
<path d="M2419 3900 c-9 -5 -22 -23 -28 -39 -8 -18 -31 -39 -61 -55 l-48 -26
-31 39 c-46 57 -115 81 -236 81 -93 0 -95 0 -127 -33 -18 -18 -39 -50 -47 -71
-20 -59 -69 -126 -86 -119 -17 6 -19 25 -5 39 5 5 12 35 16 66 6 52 4 58 -19
82 -25 25 -30 26 -151 26 -111 0 -189 -11 -246 -34 -14 -6 -128 -152 -157
-200 -7 -12 -10 -33 -7 -49 5 -24 1 -29 -28 -41 -18 -8 -67 -44 -110 -80 -97
-83 -119 -132 -125 -281 -4 -92 -10 -116 -71 -296 -62 -184 -66 -200 -55 -235
6 -22 30 -97 53 -169 22 -71 52 -182 65 -245 14 -63 54 -200 90 -305 69 -205
80 -253 55 -246 -66 17 -116 -9 -249 -135 -90 -85 -223 -254 -254 -324 -30
-67 -56 -172 -47 -195 13 -36 49 -46 118 -33 75 14 85 8 71 -47 -6 -22 -12
-91 -14 -153 l-4 -113 35 -39 c20 -22 63 -53 96 -69 88 -44 88 -44 88 -123 0
-60 3 -72 24 -93 23 -23 31 -24 118 -22 138 2 286 -42 372 -113 34 -28 58 -40
80 -40 38 0 110 21 162 48 60 30 171 62 219 62 75 0 176 -55 285 -155 l46 -42
184 -6 c102 -4 228 -12 280 -19 52 -6 108 -8 123 -4 15 3 52 33 83 66 128 135
360 192 539 131 39 -13 84 -32 101 -42 17 -10 50 -26 73 -34 51 -18 78 -9 134
42 56 50 245 138 339 157 93 19 135 20 229 4 82 -14 108 -5 147 52 19 29 23
44 19 85 -5 52 22 172 48 211 12 19 25 22 100 25 81 4 88 6 111 32 31 36 31
80 -1 136 -37 64 -94 198 -101 240 -13 70 -41 117 -98 165 -90 77 -96 131 -31
264 49 100 44 110 -90 173 -58 27 -119 49 -136 49 -16 0 -32 6 -35 13 -3 8 18
103 47 213 70 272 66 255 90 421 30 218 29 247 -14 407 -21 77 -47 154 -58
172 -19 31 -72 64 -102 64 -20 0 -26 18 -17 51 4 14 11 54 15 88 7 61 7 62
-29 94 -20 18 -41 49 -48 68 -18 47 -104 175 -130 194 -13 8 -32 15 -44 15
-24 0 -43 20 -119 130 -27 39 -59 80 -70 90 -38 36 -249 54 -304 26 -43 -22
-91 -83 -91 -114 -1 -69 -46 -62 -79 12 -25 57 -53 71 -166 85 -163 20 -172
18 -226 -39 -26 -27 -50 -50 -53 -50 -3 0 -15 20 -27 44 -11 25 -26 49 -32 54
-16 13 -328 23 -348 12z m1231 -130 c30 -16 62 -59 57 -74 -10 -25 -109 -22
-132 4 -10 11 -35 25 -57 30 -27 8 -38 16 -38 30 0 10 6 21 13 24 16 7 138 -4
157 -14z m-1540 0 c19 -12 -1 -19 -68 -26 -42 -5 -61 -3 -67 6 -4 7 -2 16 6
21 17 10 112 10 129 -1z m586 -1 c13 -22 -22 -29 -133 -28 -113 2 -141 8 -129
28 5 7 51 11 131 11 80 0 126 -4 131 -11z m-1061 -19 c11 -13 15 -24 9 -30 -5
-5 -52 -11 -104 -13 -52 -3 -110 -8 -127 -12 -41 -9 -42 3 -4 44 28 30 31 31
118 31 78 0 92 -3 108 -20z m1474 4 c51 -10 35 -24 -26 -24 -65 0 -103 8 -103
21 0 10 83 12 129 3z m-288 -34 c37 -21 14 -69 -26 -54 -21 8 -19 64 2 64 3 0
13 -5 24 -10z m-700 -135 c50 -45 72 -50 179 -38 79 9 94 14 125 42 34 30 39
31 123 31 l87 0 31 -37 c31 -36 34 -38 108 -41 71 -4 136 9 136 27 0 4 14 15
31 25 27 16 44 17 136 11 107 -7 109 -8 151 -59 13 -17 16 -36 5 -37 -5 0 -19
-2 -33 -4 -102 -13 -517 -16 -665 -6 -93 7 -323 13 -509 14 -309 2 -340 4
-350 19 -17 28 6 44 35 24 13 -9 33 -16 44 -16 30 1 136 38 154 54 14 13 43
18 145 24 20 1 40 -8 67 -33z m1465 0 c10 -16 10 -26 -1 -52 -14 -33 -15 -33
-84 -33 -38 0 -82 5 -98 11 l-28 11 40 34 c52 45 71 54 119 51 26 -1 43 -8 52
-22z m-2047 -4 c10 -6 12 -24 9 -67 -4 -47 -10 -61 -31 -79 -25 -19 -62 -85
-160 -280 -22 -44 -45 -98 -52 -120 -14 -46 -41 -68 -55 -46 -10 17 9 69 40
108 15 20 20 41 20 90 0 65 9 91 55 159 14 20 25 44 25 52 0 30 59 140 90 166
35 29 39 30 59 17z m2391 -86 c62 -93 70 -126 33 -124 -16 1 -37 23 -133 140
-17 20 -30 41 -30 46 0 10 37 31 56 32 6 1 39 -42 74 -94z m-2680 -84 c0 -38
-47 -56 -81 -30 -23 19 -24 20 -5 34 11 8 35 15 53 15 26 0 33 -4 33 -19z
m2383 -51 c-4 -31 3 -51 46 -127 28 -50 71 -118 96 -152 51 -70 55 -88 21
-101 -37 -14 -49 -44 -41 -103 7 -48 6 -50 -9 -34 -16 16 -33 22 -81 29 -16 3
-21 13 -25 51 -8 69 -23 79 -132 88 -51 4 -156 13 -233 19 l-139 12 -21 -25
c-13 -15 -24 -45 -28 -76 -3 -28 -9 -56 -12 -61 -9 -15 -180 -13 -193 3 -6 7
-12 34 -14 61 -2 40 -8 53 -31 70 -26 19 -41 21 -202 21 -166 0 -175 -1 -198
-23 -15 -14 -36 -22 -60 -22 -23 0 -44 -7 -56 -19 -19 -19 -41 -79 -41 -112 0
-24 -23 -40 -40 -29 -8 6 -58 10 -110 10 -55 0 -101 5 -107 11 -6 6 -8 30 -5
54 6 59 -27 94 -90 96 -36 2 -278 1 -315 -1 -21 0 -43 -31 -54 -75 -13 -53
-32 -73 -53 -56 -8 7 -39 14 -68 16 -29 2 -56 4 -60 4 -15 2 -8 38 11 55 10 9
37 59 60 111 23 51 59 124 82 162 22 37 50 89 61 116 22 47 22 47 71 47 27 0
109 2 181 5 72 3 280 0 461 -7 389 -14 524 -15 947 -3 280 7 321 10 345 26 33
22 43 11 36 -41z m200 -35 c29 -28 36 -55 13 -55 -13 0 -56 57 -56 74 0 12 16
5 43 -19z m217 -121 c0 -52 -1 -54 -36 -69 -19 -8 -43 -24 -53 -36 -18 -23
-41 -19 -41 7 0 8 14 33 30 56 17 22 30 49 30 60 0 10 9 27 21 39 31 31 49 10
49 -57z m-2872 -8 l3 -68 -61 4 c-71 5 -83 16 -76 71 5 48 7 49 59 58 71 12
72 11 75 -65z m3008 -199 c16 -16 46 -155 38 -169 -7 -11 -173 -5 -257 8 -58
10 -38 28 38 35 82 7 99 23 92 86 -2 23 0 47 7 53 13 13 65 5 82 -13z m-3101
-50 c-7 -61 -6 -65 20 -85 15 -12 40 -22 56 -22 32 0 45 -13 26 -28 -19 -15
-211 -24 -224 -11 -9 9 -4 34 19 98 36 103 42 111 80 111 l30 0 -7 -63z m1649
-47 c5 -5 6 -15 3 -24 -5 -12 -32 -14 -161 -14 -156 1 -156 1 -156 23 0 13 4
25 10 27 21 7 295 -4 304 -12z m698 -11 c61 -9 79 -15 83 -30 12 -38 -2 -42
-139 -35 -72 4 -139 9 -148 12 -18 5 -25 53 -10 68 7 9 87 3 214 -15z m-1557
-49 l0 -35 -100 4 c-104 4 -126 13 -98 43 16 18 64 26 148 24 l50 -1 0 -35z
m1943 -79 c37 -55 41 -87 12 -96 -23 -7 -96 2 -122 17 -26 13 -22 52 7 68 13
7 29 26 34 41 13 37 28 31 69 -30z m-2369 -1 c53 0 53 0 46 -27 -9 -38 -20
-43 -95 -43 -70 0 -90 10 -90 45 0 31 10 38 50 31 19 -3 59 -6 89 -6z m1584
-17 c62 -5 68 -8 65 -27 -3 -19 -10 -21 -99 -24 -77 -2 -99 0 -109 13 -10 12
-10 18 0 30 14 16 41 18 143 8z m-719 -19 c41 -41 9 -51 -131 -41 -81 5 -126
4 -145 -4 -33 -14 -52 -5 -39 20 8 15 26 18 117 19 59 1 112 6 118 12 15 15
62 12 80 -6z m386 8 l45 -7 7 -54 c9 -74 30 -93 115 -102 38 -5 118 -8 179 -8
126 -1 157 12 169 72 15 76 2 71 158 63 182 -8 183 -9 191 -55 10 -63 32 -73
241 -110 33 -5 69 -13 81 -16 14 -5 30 1 47 17 22 18 29 37 36 92 6 38 15 72
20 76 16 9 239 -14 252 -27 15 -15 3 -137 -15 -152 -6 -6 -48 -11 -91 -13 -72
-3 -80 -5 -80 -23 0 -18 8 -20 84 -23 l84 -3 -7 -60 c-6 -67 -33 -167 -48
-186 -6 -7 -29 -13 -52 -13 -49 0 -71 -12 -63 -34 4 -11 19 -16 46 -16 22 0
43 -5 46 -10 4 -6 -10 -82 -30 -168 -20 -86 -45 -197 -56 -247 -12 -49 -23
-98 -26 -107 -3 -14 -15 -18 -56 -18 -95 0 -215 -19 -256 -39 -45 -24 -53 -33
-45 -54 10 -28 55 -37 178 -37 87 0 127 -4 134 -12 12 -16 73 -235 103 -373
14 -62 22 -138 23 -200 l1 -100 -165 -1 c-152 -1 -171 -3 -245 -28 -77 -27
-88 -28 -312 -29 l-232 -2 -6 385 c-8 551 -7 529 -29 546 -13 9 -47 14 -102
14 -45 0 -148 7 -230 16 -218 24 -472 24 -549 1 -33 -11 -64 -22 -70 -27 -5
-4 -26 -10 -46 -14 -21 -4 -42 -13 -49 -21 -9 -10 -14 -79 -17 -217 -8 -338
-8 -642 -1 -658 4 -8 4 -21 -1 -28 -16 -26 -514 6 -844 54 -75 11 -82 28 -81
204 0 147 14 252 55 420 12 47 27 91 33 98 11 11 32 10 120 -7 59 -12 120 -21
135 -21 56 0 86 76 43 110 -11 10 -58 22 -107 29 -136 19 -156 30 -188 104
-50 115 -167 467 -167 501 0 23 3 24 24 17 26 -11 105 -3 123 11 6 5 9 16 6
24 -7 19 -89 19 -125 0 -34 -18 -43 -8 -53 54 -4 25 -25 100 -46 168 -22 68
-39 134 -39 147 0 27 10 30 136 39 76 6 88 2 117 -46 34 -54 54 -60 206 -60
171 0 175 2 205 95 5 15 19 17 113 17 59 0 114 -4 121 -9 7 -4 15 -23 17 -41
6 -44 31 -80 56 -80 12 0 35 10 51 22 25 17 34 19 50 9 16 -10 283 -41 361
-41 16 0 38 10 52 25 22 21 25 33 25 90 0 59 2 67 23 75 26 10 152 11 217 2z
m1577 -1014 c36 -17 68 -38 71 -46 3 -8 -5 -45 -17 -83 -33 -104 -31 -155 8
-215 18 -27 55 -69 82 -94 43 -39 52 -55 70 -120 11 -40 36 -107 55 -147 20
-40 32 -77 29 -83 -3 -5 -22 -10 -41 -10 -43 0 -93 -20 -117 -48 -22 -24 -87
-208 -96 -272 l-6 -45 -115 -1 c-74 -1 -140 -7 -185 -19 -81 -20 -249 -97
-328 -149 -63 -42 -74 -43 -127 -16 -21 11 -78 31 -125 45 -225 65 -488 0
-647 -160 l-37 -37 -103 11 c-57 6 -157 13 -223 17 -134 7 -164 18 -309 113
-172 112 -306 115 -511 11 l-80 -40 -50 34 c-95 66 -263 123 -377 129 l-63 4
-6 57 c-8 72 -31 98 -124 142 -105 49 -131 84 -109 144 13 37 29 108 39 176 7
45 -10 99 -38 123 -9 7 -40 16 -69 20 -37 4 -54 11 -56 22 -9 47 192 285 325
385 42 32 78 66 81 76 7 27 35 18 46 -14 8 -22 6 -32 -8 -47 -20 -22 -67 -210
-92 -362 -12 -76 -14 -141 -10 -262 9 -274 16 -297 90 -297 23 0 120 -12 216
-25 250 -37 468 -44 1305 -44 882 0 1038 6 1110 40 47 23 61 24 230 24 102 0
187 4 196 10 9 6 34 30 54 55 l38 45 -6 110 c-6 121 -49 343 -97 497 -34 109
-37 139 -14 173 9 13 24 59 35 102 23 93 26 103 35 103 4 0 36 -14 71 -32z
m-1449 -161 c185 -13 195 -17 190 -67 -3 -23 -8 -26 -73 -33 -41 -5 -118 -4
-187 2 -64 6 -215 11 -336 11 l-219 0 -7 32 c-3 18 -2 36 4 42 35 35 248 40
628 13z m-332 -215 c6 -4 15 -76 21 -172 9 -138 8 -167 -3 -180 -21 -22 -48
-1 -56 46 -12 69 -9 289 4 302 14 14 19 14 34 4z m-172 -17 c10 -27 8 -337 -2
-347 -6 -6 -23 -7 -38 -4 l-27 7 6 82 c4 45 9 120 13 167 3 47 7 91 9 98 6 17
32 15 39 -3z m394 3 c5 -7 11 -87 13 -178 l4 -165 -33 -3 c-26 -3 -34 1 -42
22 -11 30 -25 297 -17 320 8 19 60 22 75 4z m299 4 c13 -8 18 -83 15 -240 -2
-111 -3 -113 -24 -110 -31 4 -40 55 -36 208 3 142 10 164 45 142z m-794 -108
c-3 -161 -13 -244 -29 -244 -8 0 -17 6 -20 14 -6 16 15 316 23 329 3 4 10 6
16 4 8 -3 11 -36 10 -103z m694 94 c6 -8 9 -83 8 -178 -2 -147 -4 -165 -19
-168 -41 -8 -46 13 -46 177 0 156 5 181 36 181 6 0 16 -6 21 -12z m-42 -468
l152 0 7 -61 c4 -34 5 -64 2 -66 -3 -3 -198 -6 -433 -7 l-428 0 3 59 c2 33 6
62 9 65 8 8 291 18 417 14 66 -2 188 -4 271 -4z"/>
<path d="M1063 2504 c-21 -9 -15 -41 10 -48 33 -9 85 -7 92 3 6 11 -21 41 -38
41 -7 0 -21 2 -32 5 -11 2 -26 2 -32 -1z"/>
<path d="M1492 2203 c-40 -8 -50 -52 -41 -183 4 -63 8 -127 8 -142 1 -20 9
-32 31 -43 35 -18 111 -20 128 -3 8 8 12 64 12 185 l0 173 -26 10 c-25 10 -69
11 -112 3z m86 -190 l-3 -138 -27 -3 c-20 -2 -28 2 -33 18 -9 27 -24 242 -18
253 2 4 22 7 44 7 l40 0 -3 -137z"/>
<path d="M3579 2184 c-7 -9 -23 -20 -36 -25 -22 -8 -23 -13 -23 -126 0 -74 5
-133 14 -158 14 -39 16 -40 63 -43 71 -4 81 8 83 98 4 174 0 238 -16 254 -20
21 -68 20 -85 0z m46 -169 l0 -130 -25 0 -25 0 -3 133 -3 133 28 -3 28 -3 0
-130z"/>
<path d="M2938 2174 c-15 -8 -31 -26 -34 -40 -8 -33 5 -213 17 -236 11 -21 47
-32 109 -32 l45 -1 3 120 c1 66 6 132 11 146 5 14 6 31 2 36 -11 18 -123 23
-153 7z m90 -99 c2 -27 1 -74 -3 -102 -6 -47 -9 -53 -30 -53 -27 0 -31 10 -40
101 -9 91 -2 111 38 107 31 -3 32 -5 35 -53z"/>
<path d="M2150 2159 c-13 -5 -28 -15 -32 -22 -8 -12 -2 -178 8 -244 8 -50 47
-67 116 -49 47 12 53 16 49 37 -3 13 -5 83 -5 154 l-1 130 -55 2 c-30 1 -66
-2 -80 -8z m78 -134 c2 -49 0 -100 -3 -112 -5 -23 -29 -31 -39 -14 -10 15 -27
201 -21 212 4 5 19 9 33 7 27 -3 27 -4 30 -93z"/>
<path d="M3815 964 c-29 -31 -34 -94 -10 -114 21 -18 33 -3 37 45 l3 40 48 3
c33 2 47 -1 48 -10 0 -7 1 -33 2 -58 1 -31 6 -45 16 -45 18 0 26 17 41 83 17
73 8 82 -87 82 -67 0 -76 -2 -98 -26z"/>
<path d="M1223 960 c-13 -5 -23 -16 -23 -25 0 -16 8 -18 51 -15 26 1 55 -22
45 -38 -8 -13 19 -46 31 -39 14 9 34 92 27 111 -7 18 -92 22 -131 6z"/>
</g>
</svg>
