<?xml version="1.0" standalone="no"?><!DOCTYPE svg PUBLIC "-//W3C//DTD SVG 1.1//EN" "http://www.w3.org/Graphics/SVG/1.1/DTD/svg11.dtd"><svg t="1670114625792" class="icon" viewBox="0 0 1024 1024" version="1.1" xmlns="http://www.w3.org/2000/svg" p-id="4783" xmlns:xlink="http://www.w3.org/1999/xlink" width="200" height="200"><path d="M475.4 980.9c-6.8 0-12.2-5.5-12.2-12.2V652.3H323.3v316.4c0 6.8-5.5 12.2-12.2 12.2s-12.2-5.5-12.2-12.2V640c0-6.8 5.5-12.2 12.2-12.2h164.3c6.8 0 12.2 5.5 12.2 12.2v328.6c0 6.8-5.4 12.3-12.2 12.3z" fill="#6060BA" p-id="4784"></path><path d="M327.5 525h131.4v115H327.5z" fill="#ACB9F9" p-id="4785"></path><path d="M459 652.3H327.5c-6.8 0-12.2-5.5-12.2-12.2V525c0-6.8 5.5-12.2 12.2-12.2H459c6.8 0 12.2 5.5 12.2 12.2v115c0 6.8-5.5 12.3-12.2 12.3z m-119.2-24.5h107v-90.6h-107v90.6z" fill="#6060BA" p-id="4786"></path><path d="M344 416.2h98.6v108.9H344z" fill="#ACB9F9" p-id="4787"></path><path d="M442.5 537.2H344c-6.8 0-12.2-5.5-12.2-12.2V416.2c0-6.8 5.5-12.2 12.2-12.2h98.6c6.8 0 12.2 5.5 12.2 12.2V525c0 6.8-5.5 12.2-12.3 12.2z m-86.3-24.4h74.1v-84.4h-74.1v84.4z" fill="#6060BA" p-id="4788"></path><path d="M356.3 328.4h73.9v87.8h-73.9z" fill="#ACB9F9" p-id="4789"></path><path d="M430.2 428.4h-73.9c-6.8 0-12.2-5.5-12.2-12.2v-87.8c0-6.8 5.5-12.2 12.2-12.2h73.9c6.8 0 12.2 5.5 12.2 12.2v87.8c0 6.7-5.4 12.2-12.2 12.2z m-61.7-24.5H418v-63.3h-49.5v63.3z" fill="#6060BA" p-id="4790"></path><path d="M368.6 265.2h49.3v63.2h-49.3z" fill="#ACB9F9" p-id="4791"></path><path d="M417.9 340.6h-49.3c-6.8 0-12.2-5.5-12.2-12.2v-63.2c0-6.8 5.5-12.2 12.2-12.2h49.3c6.8 0 12.2 5.5 12.2 12.2v63.2c0 6.7-5.4 12.2-12.2 12.2z m-37.1-24.5h24.8v-38.7h-24.8v38.7z" fill="#6060BA" p-id="4792"></path><path d="M393.3 266.1c-6.8 0-12.2-5.5-12.2-12.2V56.7c0-6.8 5.5-12.2 12.2-12.2s12.2 5.5 12.2 12.2v197.2c0 6.8-5.5 12.2-12.2 12.2z" fill="#6060BA" p-id="4793"></path><path d="M393.3 171.6c4.6 0 8.4 3.8 8.4 8.4s-3.8 8.4-8.4 8.4-8.4-3.8-8.4-8.4 3.7-8.4 8.4-8.4m0-24.5c-18.1 0-32.9 14.7-32.9 32.9s14.7 32.9 32.9 32.9c18.1 0 32.9-14.7 32.9-32.9s-14.8-32.9-32.9-32.9zM467.2 718H319.3c-6.8 0-12.2-5.5-12.2-12.2s5.5-12.2 12.2-12.2h147.9c6.8 0 12.2 5.5 12.2 12.2s-5.5 12.2-12.2 12.2zM639.7 786.5H311.1c-6.8 0-12.2-5.5-12.2-12.2s5.5-12.2 12.2-12.2h328.6c6.8 0 12.2 5.5 12.2 12.2s-5.4 12.2-12.2 12.2zM475.4 854.9H311.1c-6.8 0-12.2-5.5-12.2-12.2s5.5-12.2 12.2-12.2h164.3c6.8 0 12.2 5.5 12.2 12.2s-5.4 12.2-12.2 12.2zM475.4 923.4H311.1c-6.8 0-12.2-5.5-12.2-12.2s5.5-12.2 12.2-12.2h164.3c6.8 0 12.2 5.5 12.2 12.2s-5.4 12.2-12.2 12.2z" fill="#6060BA" p-id="4794"></path><path d="M762.9 980.9c-6.8 0-12.2-5.5-12.2-12.2V652.3H610.9v316.4c0 6.8-5.5 12.2-12.2 12.2s-12.2-5.5-12.2-12.2V640c0-6.8 5.5-12.2 12.2-12.2H763c6.8 0 12.2 5.5 12.2 12.2v328.6c0 6.8-5.5 12.3-12.3 12.3z" fill="#6060BA" p-id="4795"></path><path d="M615.1 525h131.4v115H615.1z" fill="#ACB9F9" p-id="4796"></path><path d="M746.5 652.3H615.1c-6.8 0-12.2-5.5-12.2-12.2V525c0-6.8 5.5-12.2 12.2-12.2h131.4c6.8 0 12.2 5.5 12.2 12.2v115c0 6.8-5.4 12.3-12.2 12.3z m-119.2-24.5h107v-90.6h-107v90.6z" fill="#6060BA" p-id="4797"></path><path d="M631.5 416.2h98.6v108.9h-98.6z" fill="#ACB9F9" p-id="4798"></path><path d="M730.1 537.2h-98.6c-6.8 0-12.2-5.5-12.2-12.2V416.2c0-6.8 5.5-12.2 12.2-12.2h98.6c6.8 0 12.2 5.5 12.2 12.2V525c0 6.8-5.5 12.2-12.2 12.2z m-86.4-24.4h74.1v-84.4h-74.1v84.4z" fill="#6060BA" p-id="4799"></path><path d="M643.8 328.4h73.9v87.8h-73.9z" fill="#ACB9F9" p-id="4800"></path><path d="M717.8 428.4h-73.9c-6.8 0-12.2-5.5-12.2-12.2v-87.8c0-6.8 5.5-12.2 12.2-12.2h73.9c6.8 0 12.2 5.5 12.2 12.2v87.8c0 6.7-5.5 12.2-12.2 12.2z m-61.7-24.5h49.5v-63.3h-49.5v63.3z" fill="#6060BA" p-id="4801"></path><path d="M656.1 265.2h49.3v63.2h-49.3z" fill="#ACB9F9" p-id="4802"></path><path d="M705.4 340.6h-49.3c-6.8 0-12.2-5.5-12.2-12.2v-63.2c0-6.8 5.5-12.2 12.2-12.2h49.3c6.8 0 12.2 5.5 12.2 12.2v63.2c0.1 6.7-5.4 12.2-12.2 12.2z m-37-24.5h24.8v-38.7h-24.8v38.7z" fill="#6060BA" p-id="4803"></path><path d="M680.8 266.1c-6.8 0-12.2-5.5-12.2-12.2V56.7c0-6.8 5.5-12.2 12.2-12.2S693 50 693 56.7v197.2c0 6.8-5.5 12.2-12.2 12.2z" fill="#6060BA" p-id="4804"></path><path d="M680.8 171.6c4.6 0 8.4 3.8 8.4 8.4s-3.8 8.4-8.4 8.4-8.4-3.8-8.4-8.4 3.8-8.4 8.4-8.4m0-24.5c-18.1 0-32.9 14.7-32.9 32.9s14.7 32.9 32.9 32.9c18.1 0 32.9-14.7 32.9-32.9s-14.8-32.9-32.9-32.9zM754.7 718H606.9c-6.8 0-12.2-5.5-12.2-12.2s5.5-12.2 12.2-12.2h147.9c6.8 0 12.2 5.5 12.2 12.2s-5.5 12.2-12.3 12.2zM762.9 786.5H598.6c-6.8 0-12.2-5.5-12.2-12.2s5.5-12.2 12.2-12.2h164.3c6.8 0 12.2 5.5 12.2 12.2s-5.4 12.2-12.2 12.2zM762.9 854.9H598.6c-6.8 0-12.2-5.5-12.2-12.2s5.5-12.2 12.2-12.2h164.3c6.8 0 12.2 5.5 12.2 12.2s-5.4 12.2-12.2 12.2zM762.9 923.4H598.6c-6.8 0-12.2-5.5-12.2-12.2s5.5-12.2 12.2-12.2h164.3c6.8 0 12.2 5.5 12.2 12.2s-5.4 12.2-12.2 12.2zM353.3 980.9h-85.6c-6.8 0-12.2-5.5-12.2-12.2s5.5-12.2 12.2-12.2h85.6c6.8 0 12.2 5.5 12.2 12.2s-5.4 12.2-12.2 12.2zM640.7 980.9H432.8c-6.8 0-12.2-5.5-12.2-12.2s5.5-12.2 12.2-12.2h207.9c6.8 0 12.2 5.5 12.2 12.2s-5.5 12.2-12.2 12.2zM811.9 980.9h-85.6c-6.8 0-12.2-5.5-12.2-12.2s5.5-12.2 12.2-12.2h85.6c6.8 0 12.2 5.5 12.2 12.2s-5.5 12.2-12.2 12.2z" fill="#6060BA" p-id="4805"></path></svg>