<?xml version="1.0" standalone="no"?><!DOCTYPE svg PUBLIC "-//W3C//DTD SVG 1.1//EN" "http://www.w3.org/Graphics/SVG/1.1/DTD/svg11.dtd"><svg t="1672785236208" class="icon" viewBox="0 0 1024 1024" version="1.1" xmlns="http://www.w3.org/2000/svg" p-id="3196" xmlns:xlink="http://www.w3.org/1999/xlink" width="200" height="200"><path d="M133.056133 210.760915c4.257796 4.257796 10.644491 6.386694 14.902287 6.386694 6.386694 0 10.644491-2.128898 14.902287-6.386694 8.515593-8.515593 8.515593-21.288981 0-29.804574L103.251559 121.347193c-8.515593-8.515593-21.288981-8.515593-29.804574 0-8.515593 6.386694-8.515593 21.288981 0 29.804574l59.609148 59.609148zM171.376299 283.143451c0-12.773389-8.515593-21.288981-21.288981-21.288981H64.931393c-12.773389 0-21.288981 8.515593-21.288981 21.288981s8.515593 21.288981 21.288981 21.288981h85.155925c12.773389 0 21.288981-10.644491 21.288981-21.288981zM162.860707 355.525988c-8.515593-8.515593-21.288981-8.515593-29.804574 0l-59.609148 59.609147c-8.515593 8.515593-8.515593 21.288981 0 29.804574 4.257796 4.257796 10.644491 6.386694 14.902287 6.386694s10.644491-2.128898 14.902287-6.386694l59.609148-59.609148c8.515593-8.515593 8.515593-23.417879 0-29.804573zM876.04158 217.147609c6.386694 0 10.644491-2.128898 14.902287-6.386694l59.609148-59.609148c8.515593-8.515593 8.515593-21.288981 0-29.804574-8.515593-8.515593-21.288981-8.515593-29.804574 0l-59.609148 59.609148c-8.515593 8.515593-8.515593 21.288981 0 29.804574 4.257796 4.257796 8.515593 6.386694 14.902287 6.386694zM959.068607 261.85447h-85.155925c-12.773389 0-21.288981 8.515593-21.288981 21.288981s8.515593 21.288981 21.288981 21.288981h85.155925c12.773389 0 21.288981-8.515593 21.288981-21.288981s-8.515593-21.288981-21.288981-21.288981zM890.943867 355.525988c-8.515593-8.515593-21.288981-8.515593-29.804574 0-8.515593 8.515593-8.515593 21.288981 0 29.804573l59.609148 59.609148c4.257796 4.257796 10.644491 6.386694 14.902287 6.386694 6.386694 0 10.644491-2.128898 14.902287-6.386694 8.515593-8.515593 8.515593-21.288981 0-29.804574l-59.609148-59.609147zM863.268191 981.422037H767.467775l-80.898128-579.060291c-2.128898-8.515593 0-19.160083 2.128898-27.675675l51.093555-157.538462 8.515592 6.386695c4.257796 2.128898 8.515593 4.257796 12.773389 4.257796 6.386694 0 12.773389-2.128898 17.031185-8.515593 6.386694-8.515593 4.257796-21.288981-4.257796-29.804574L518.386694 0l-255.467775 189.471933c-8.515593 6.386694-10.644491 19.160083-4.257796 29.804574 6.386694 8.515593 21.288981 10.644491 29.804573 4.257797l8.515593-6.386695 51.093555 157.538462c2.128898 8.515593 4.257796 19.160083 2.128898 27.675675l-80.898129 579.060291H175.634096c-10.644491 0-17.031185 8.515593-17.031185 21.288982 0 10.644491 8.515593 21.288981 17.031185 21.288981h689.762993c10.644491 0 19.160083-8.515593 19.160084-21.288981-4.257796-12.773389-12.773389-21.288981-21.288982-21.288982z m-417.264033-210.760914c0 2.128898 0 2.128898-2.128898 4.257796 0 2.128898 0 2.128898-2.128898 4.257796l-2.128898 2.128898s-2.128898 2.128898-4.257797 2.128898c0 0-2.128898 2.128898-4.257796 2.128899s-2.128898 0-4.257796 2.128898h-8.515593c-2.128898 0-2.128898 0-4.257796-2.128898-2.128898 0-2.128898-2.128898-4.257796-2.128899l-2.128898-2.128898c0-2.128898-2.128898-2.128898-2.128898-2.128898 0-2.128898-2.128898-2.128898-2.128899-4.257796s0-2.128898-2.128898-4.257796V766.403326c0-6.386694 2.128898-10.644491 6.386695-14.902286l2.128898-2.128899c2.128898 0 2.128898-2.128898 4.257796-2.128898s2.128898 0 4.257796-2.128898h8.515593c2.128898 0 2.128898 0 4.257796 2.128898 2.128898 0 2.128898 2.128898 4.257796 2.128898s2.128898 2.128898 4.257797 2.128899c4.257796 4.257796 6.386694 8.515593 6.386694 14.902286v4.257797z m0-110.702703c0 12.773389-8.515593 21.288981-21.288981 21.288981s-21.288981-8.515593-21.288982-21.288981v-127.733888c0-12.773389 8.515593-21.288981 21.288982-21.288981s21.288981 8.515593 21.288981 21.288981v127.733888z m63.866944-393.846154c-23.417879 0-42.577963-19.160083-42.577963-42.577962s19.160083-42.577963 42.577963-42.577963 42.577963 19.160083 42.577962 42.577963-19.160083 42.577963-42.577962 42.577962z" fill="#13227a" p-id="3197"></path></svg>