<?xml version="1.0" standalone="no"?><!DOCTYPE svg PUBLIC "-//W3C//DTD SVG 1.1//EN" "http://www.w3.org/Graphics/SVG/1.1/DTD/svg11.dtd"><svg t="1670114670544" class="icon" viewBox="0 0 1024 1024" version="1.1" xmlns="http://www.w3.org/2000/svg" p-id="7153" xmlns:xlink="http://www.w3.org/1999/xlink" width="200" height="200"><path d="M529.205098 338.910776C476.551564 375.84241 426.122827 400.463499 370.799537 400.463499h377.770567a309.246813 309.246813 0 0 1-174.869061-60.959443zM337.130939 552.936269h436.505214c-80.24102-1.779838-97.149479-32.778679-133.487833-60.662804H472.843569a181.395133 181.395133 0 0 1-135.71263 60.662804zM303.75898 692.505214h494.498262c-80.24102-1.928158-97.149479-24.02781-133.487833-51.170336H439.471611c-21.209733 26.104287-71.193511 50.873696-135.712631 51.170336zM280.32445 778.827346v49.983778h543.74044v-49.983778z" fill="#FF8E68" p-id="7154"></path><path d="M245.320973 922.400927a12.903824 12.903824 0 1 1 0-25.659328h96.852839v-55.026651H281.807648a12.903824 12.903824 0 0 1-12.903824-12.903824v-49.983778a12.903824 12.903824 0 0 1 12.903824-12.903823h106.641946v-60.662805h-83.059096a12.903824 12.903824 0 0 1 0-25.659328 201.121669 201.121669 0 0 0 97.594438-23.87949l20.023175-14.831981 6.229432-6.377752v-68.672074h-90.475086a12.903824 12.903824 0 0 1 0-25.807648l17.205098-1.038239h1.631518l17.798378-3.114716a170.567787 170.567787 0 0 0 79.94438-42.567787l5.191193-5.932792-0.889919-4.449595v-69.413673h-88.991888c-13.348783 0-20.023175-25.659328 0-25.659328a228.560834 228.560834 0 0 0 114.354577-34.855156l29.663963-19.133256v-20.616455a13.052144 13.052144 0 0 1 12.903824-12.903823h12.458864v-21.358054h-7.267671a12.903824 12.903824 0 1 1 0-25.659328h7.267671v-12.755504h-7.267671a12.903824 12.903824 0 1 1 0-25.807647h7.267671V151.286211h-7.267671a12.903824 12.903824 0 1 1 0-25.659328h7.267671v-8.30591a12.903824 12.903824 0 1 1 25.807648 0v8.30591h7.267671a12.903824 12.903824 0 1 1 0 25.659328h-7.267671v63.480881h7.267671a13.200463 13.200463 0 0 1 13.052143 12.903823 12.903824 12.903824 0 0 1-13.052143 12.903824h-7.267671v12.755504h7.267671a12.903824 12.903824 0 1 1 0 25.659328h-7.267671v21.358054H578.447277a13.052144 13.052144 0 0 1 12.903824 12.903823v20.468135l29.663963 18.243337a279.286211 279.286211 0 0 0 130.224797 35.300116 12.903824 12.903824 0 0 1 0 25.807648H652.607184V484.412514l21.803013 18.391657a172.050985 172.050985 0 0 0 24.17613 18.243338 145.353418 145.353418 0 0 0 76.681344 18.688296 12.903824 12.903824 0 0 1 0 25.807648H677.821553v68.227115l20.616454 16.01854a145.501738 145.501738 0 0 0 23.73117 14.831981 183.323291 183.323291 0 0 0 77.867903 14.831982 12.903824 12.903824 0 0 1 0 25.659328h-84.690614v60.662804h110.201622a12.903824 12.903824 0 0 1 12.903824 12.903824v49.983777a12.903824 12.903824 0 0 1-12.903824 12.903824h-62.442642v55.026651h101.005794a12.903824 12.903824 0 1 1 0 25.659328H676.486674a12.755504 12.755504 0 0 1-9.047508-21.803013l7.267671-2.818076v-17.205099a6.674392 6.674392 0 0 0-1.038239-3.411355 13.645423 13.645423 0 0 0-4.746234-3.559676 49.242178 49.242178 0 0 0-21.951333-4.004635 50.725377 50.725377 0 0 0-22.396292 5.487833l-5.042873 4.152955-1.186559 3.707996v13.942062h7.415991a13.052144 13.052144 0 0 1 12.903824 12.755504 12.755504 12.755504 0 0 1-12.903824 12.903824h-59.327926a12.903824 12.903824 0 1 1 0-25.659328H593.279258v-14.831981c0-51.170336 107.976825-50.280417 107.976825-2.076478v16.31518h36.634995v-54.433372H367.98146v55.026651H400.463499v-14.831981c0-51.170336 107.828505-50.280417 107.828506-2.076478v16.31518h6.674391a12.903824 12.903824 0 1 1 0 25.659328h-27.884125a12.755504 12.755504 0 0 1-12.903824-12.903824 13.497103 13.497103 0 0 1 2.224797-7.119351l5.487834-4.449595v-16.908459a5.784473 5.784473 0 0 0-0.889919-3.411355 17.501738 17.501738 0 0 0-4.746234-3.559676 54.285052 54.285052 0 0 0-44.495945 1.483198l-5.191193 4.152955-1.186559 3.707996v13.942062a12.903824 12.903824 0 1 1 0 25.659328zM812.644264 815.75898v-24.176129H294.711472V815.75898z m-394.827346-49.835457v-21.951333a35.448436 35.448436 0 0 1 16.908459-25.511008 52.653534 52.653534 0 0 1 27.290845-7.564311 47.61066 47.61066 0 0 1 26.994207 7.415991 32.1854 32.1854 0 0 1 14.831981 27.142526v20.468135h3.263036v-21.951333a35.596756 35.596756 0 0 1 17.056779-25.511008 52.060255 52.060255 0 0 1 27.142526-7.564311 48.05562 48.05562 0 0 1 27.142526 7.415991 31.88876 31.88876 0 0 1 14.831981 27.142526v20.468135h4.597915v-21.951333a35.596756 35.596756 0 0 1 17.056778-25.511008 52.060255 52.060255 0 0 1 27.142526-7.564311 48.05562 48.05562 0 0 1 27.142526 7.415991 32.1854 32.1854 0 0 1 14.831982 27.142526v20.468135h5.932793v-60.662805h-275.874856v60.662805z m60.217844 0v-20.468135a6.081112 6.081112 0 0 0-3.263035-5.636153 20.913094 20.913094 0 0 0-12.458865-3.114716 26.252607 26.252607 0 0 0-13.942062 3.559676l-4.449595 4.894554V765.923523z m88.991889 0v-20.468135a6.081112 6.081112 0 0 0-3.263036-5.636153 20.616454 20.616454 0 0 0-12.458864-3.114716 26.104287 26.104287 0 0 0-13.793743 3.559676l-4.597914 5.042873V765.923523z m90.623407 0v-20.468135a6.081112 6.081112 0 0 0-3.263036-5.636153 20.616454 20.616454 0 0 0-12.458864-3.114716 26.994206 26.994206 0 0 0-13.942063 3.559676l-4.449594 5.042873V765.923523z m38.266512-86.322133l-30.702202-22.692931-3.263035-2.669757H446.739282l-0.741599 0.889919a126.368482 126.368482 0 0 1-16.76014 14.831982l-16.908458 10.085747zM459.791425 628.579374V608.11124a30.998841 30.998841 0 0 1 14.831982-26.400927 48.500579 48.500579 0 0 1 26.994206-7.119351 54.581692 54.581692 0 0 1 26.994206 7.267671 33.520278 33.520278 0 0 1 17.056779 24.621089v22.841251h14.831981v-23.43453A33.816918 33.816918 0 0 1 578.447277 581.117034a55.174971 55.174971 0 0 1 27.142526-7.267671 48.05562 48.05562 0 0 1 26.845886 7.119351 30.850521 30.850521 0 0 1 14.831982 26.400927v21.209733H652.607184v-62.739281H454.748552v62.739281z m60.366165 0V607.517961l-4.301275-4.449595a28.625724 28.625724 0 0 0-14.090382-3.411356 23.137891 23.137891 0 0 0-12.755504 2.966397 5.339513 5.339513 0 0 0-2.966397 4.746234v21.209733z m100.412514 0V608.11124a5.784473 5.784473 0 0 0-2.818076-4.894554 24.917729 24.917729 0 0 0-12.903824-2.818076 27.587486 27.587486 0 0 0-13.942063 3.411355l-4.449594 4.597914V629.320973z m-186.141367-88.991888h246.507532l-19.281576-14.831982c-7.267671-6.081112-14.831981-12.458864-21.358053-18.391657l-2.521437-1.334878H480.25956a161.223638 161.223638 0 0 1-21.803013 19.874855z m78.312862-60.811124v-22.247973a33.668598 33.668598 0 0 1 14.831982-28.032445 46.275782 46.275782 0 0 1 27.439165-8.00927 51.170336 51.170336 0 0 1 27.587486 8.15759 36.931634 36.931634 0 0 1 16.611819 26.400927v23.731171h28.180765v-65.557359h-141.348784v65.705678z m60.217845 0v-22.544612l-4.746234-5.784473a27.290846 27.290846 0 0 0-13.497103-3.856315 20.913094 20.913094 0 0 0-12.162225 3.263036 8.00927 8.00927 0 0 0-3.559676 7.119351v22.247972z m62.294322-91.513326L608.11124 374.210892A310.285052 310.285052 0 0 1 576.519119 355.967555l-5.191193-3.559676H533.951333l-4.894554 3.559676L474.623407 387.263036z" fill="#333333" p-id="7155"></path></svg>