<?xml version="1.0" standalone="no"?>
<!DOCTYPE svg PUBLIC "-//W3C//DTD SVG 20010904//EN"
 "http://www.w3.org/TR/2001/REC-SVG-20010904/DTD/svg10.dtd">
<svg version="1.0" xmlns="http://www.w3.org/2000/svg"
 width="465.000000pt" height="537.000000pt" viewBox="0 0 465.000000 537.000000"
 preserveAspectRatio="xMidYMid meet">

<g transform="translate(0.000000,537.000000) scale(0.100000,-0.100000)"
fill="#000000" stroke="none">
<path d="M2115 4889 c-157 -8 -220 -26 -380 -106 -135 -67 -209 -121 -333
-243 -107 -106 -114 -115 -171 -233 -33 -67 -70 -158 -82 -202 -20 -72 -21
-95 -16 -240 7 -187 31 -313 76 -403 17 -34 31 -66 31 -72 0 -6 -12 -30 -27
-53 -16 -23 -32 -49 -38 -58 -5 -9 -18 -27 -27 -41 -26 -36 -41 -174 -36 -325
l5 -131 -28 -6 c-38 -7 -50 -35 -57 -128 -5 -79 -6 -81 -37 -94 -39 -16 -42
-20 -99 -125 -31 -57 -49 -105 -53 -138 -5 -44 -10 -54 -34 -66 -16 -9 -32
-28 -38 -47 -18 -59 -41 -199 -41 -255 0 -42 -5 -59 -20 -71 -12 -11 -25 -44
-34 -87 -8 -38 -22 -101 -31 -140 -22 -101 -31 -279 -15 -310 21 -39 7 -68
-115 -240 -46 -64 -78 -170 -79 -260 l-1 -69 118 -97 c107 -88 126 -99 205
-124 48 -16 130 -51 184 -79 l96 -50 154 53 c203 71 272 80 376 52 43 -11 90
-21 104 -21 39 0 49 -20 59 -125 11 -119 24 -170 50 -196 19 -19 29 -20 162
-14 108 5 172 3 267 -10 217 -30 239 -30 290 -2 94 50 151 154 134 243 -9 51
2 81 33 89 16 4 83 13 150 20 97 10 127 17 153 35 31 22 34 22 59 6 14 -9 58
-33 96 -53 39 -19 97 -54 130 -76 67 -46 101 -51 175 -24 25 9 83 28 130 41
104 31 186 83 289 185 79 77 181 216 181 247 0 24 -123 275 -173 352 -24 37
-66 97 -94 133 l-50 66 -8 129 c-4 71 -15 176 -24 234 -16 97 -19 106 -44 118
-22 11 -27 20 -27 51 0 110 -47 243 -106 296 -29 27 -38 45 -50 101 -33 161
-77 244 -142 273 -22 10 -32 21 -32 37 0 48 -23 126 -45 152 -21 25 -23 39
-27 189 -4 139 -7 165 -24 188 -10 15 -28 45 -40 67 l-21 40 69 153 c71 158
92 234 104 382 14 176 -79 462 -212 649 -137 194 -489 409 -701 429 -37 3 -81
7 -98 9 -16 2 -93 -1 -170 -5z m240 -99 c74 -11 206 -51 266 -81 72 -36 258
-172 319 -232 74 -74 125 -157 180 -292 51 -125 67 -189 75 -290 11 -127 -12
-247 -75 -395 -60 -142 -78 -169 -169 -260 -37 -36 -82 -84 -101 -106 -42 -46
-186 -131 -285 -167 -85 -30 -254 -58 -351 -58 -159 1 -297 37 -472 125 -168
84 -245 152 -343 299 -147 219 -166 287 -155 554 7 189 26 285 77 392 35 72
55 97 152 192 62 59 128 118 147 129 143 86 233 134 294 155 113 40 300 55
441 35z m-1070 -1630 c77 -78 230 -195 310 -237 190 -101 246 -125 302 -133
32 -4 94 -17 138 -29 65 -18 109 -22 235 -23 l155 -1 141 46 c77 25 160 54
185 63 68 28 187 111 266 187 43 42 78 67 86 64 18 -7 31 -195 18 -252 -11
-43 -27 -60 -132 -136 -113 -81 -220 -128 -438 -190 l-203 -59 -145 0 c-180 0
-311 14 -433 46 -108 29 -243 97 -310 156 -25 22 -72 53 -105 69 -33 16 -82
46 -110 67 l-50 38 -3 74 c-4 90 14 258 30 277 15 19 19 17 63 -27z m-80 -440
c24 -16 50 -36 58 -44 7 -8 30 -19 51 -24 29 -9 176 -114 176 -127 0 -2 -7
-11 -16 -20 -25 -25 -34 -83 -41 -273 -3 -95 -9 -174 -12 -176 -8 -5 -103 35
-122 51 -11 9 -14 53 -14 220 0 114 4 226 9 249 9 47 -9 76 -43 67 -43 -11
-46 -27 -48 -242 -2 -113 -3 -209 -3 -213 0 -17 -28 -7 -51 18 -21 22 -25 38
-29 122 -6 119 3 392 13 410 12 18 24 15 72 -18z m1974 -18 c5 -9 13 -106 16
-213 7 -181 6 -199 -11 -228 -10 -17 -22 -31 -26 -31 -4 0 -11 0 -15 0 -4 0
-8 71 -8 158 -1 117 -5 174 -19 225 l-18 67 24 20 c29 24 45 25 57 2z m-145
-119 c17 -77 24 -188 19 -275 -5 -79 -3 -101 10 -121 13 -20 14 -28 3 -42 -7
-9 -21 -16 -32 -13 -18 3 -20 17 -26 196 -6 144 -12 200 -24 223 -12 24 -13
34 -3 45 19 24 47 17 53 -13z m-126 -90 c6 -27 13 -122 16 -213 4 -91 9 -177
12 -192 6 -26 2 -30 -67 -62 -76 -36 -210 -72 -233 -63 -9 4 -15 35 -19 94 -4
48 -11 151 -17 227 -8 111 -8 142 2 152 19 17 129 47 139 37 4 -4 13 -73 19
-153 16 -213 22 -251 43 -264 12 -8 22 -8 35 0 20 13 20 44 7 296 -9 166 -4
188 35 188 13 0 21 -13 28 -47z m434 -79 c15 -44 30 -110 34 -146 l7 -66 -44
-44 c-24 -25 -57 -59 -74 -78 -84 -94 -166 -150 -357 -245 -193 -96 -265 -122
-463 -170 -109 -27 -110 -27 -370 -20 -240 7 -267 10 -360 35 -55 15 -136 36
-180 45 -89 19 -195 63 -270 111 -27 17 -77 48 -110 69 -79 49 -139 106 -186
179 -37 57 -39 63 -39 142 0 73 4 89 33 146 18 34 40 64 50 66 15 3 17 -6 18
-70 1 -173 12 -195 134 -278 136 -92 371 -195 525 -230 47 -11 107 -27 134
-35 76 -23 366 -46 461 -36 87 10 346 65 376 81 10 6 50 17 89 25 90 19 200
70 310 142 106 70 143 104 186 171 34 52 34 54 34 166 0 62 3 116 7 120 16 15
29 -5 55 -80z m-1749 63 c16 -11 18 -39 20 -260 2 -136 0 -247 -5 -247 -5 0
-27 9 -48 20 l-40 20 -2 98 c-3 131 -1 181 13 290 12 97 22 109 62 79z m190
-66 c25 -10 25 -10 31 -198 3 -103 8 -207 10 -230 2 -22 0 -46 -4 -52 -9 -15
-86 -3 -101 16 -13 15 -27 439 -15 468 6 18 25 16 79 -4z m715 -13 c7 -7 12
-35 12 -62 0 -28 7 -126 16 -217 9 -92 14 -174 11 -182 -5 -14 -110 -43 -167
-46 -14 -1 -66 -4 -116 -7 l-92 -5 -7 143 c-3 79 -5 188 -3 243 l3 100 60 0
60 0 8 -190 c9 -206 21 -257 64 -263 35 -5 46 28 33 96 -6 31 -10 126 -8 212
l3 155 50 17 c63 21 59 20 73 6z m-450 -30 c8 -7 12 -52 13 -152 0 -77 4 -179
8 -226 5 -52 4 -90 -2 -98 -11 -14 -123 -7 -143 10 -16 12 -31 468 -16 477 15
9 125 1 140 -11z m1443 -275 c13 -31 22 -80 26 -138 3 -50 11 -100 19 -112 8
-12 14 -28 14 -35 0 -20 -176 -189 -248 -238 -37 -26 -66 -40 -71 -34 -5 5
-19 45 -31 89 -24 92 -61 161 -90 170 -29 9 -25 32 10 50 38 20 209 170 238
209 28 38 83 85 100 86 7 0 22 -21 33 -47z m-2607 -27 c23 -60 122 -165 209
-223 40 -26 75 -51 79 -57 3 -5 -2 -21 -13 -35 -10 -14 -31 -51 -46 -81 -16
-30 -35 -56 -43 -58 -8 -1 -51 21 -94 50 -77 52 -109 90 -147 178 -14 31 -6
218 10 249 17 31 26 26 45 -23z m2164 -300 c3 -11 15 -36 27 -55 13 -20 35
-79 50 -131 l27 -94 -22 -18 c-12 -10 -54 -27 -93 -38 -40 -12 -120 -39 -179
-60 -58 -22 -121 -41 -139 -42 l-33 -3 -13 70 c-17 90 -40 160 -59 175 -30 26
-16 46 44 64 31 10 109 41 172 70 63 29 131 60 150 69 43 20 64 18 68 -7z
m-1693 -71 c48 -20 134 -47 193 -60 59 -13 132 -32 162 -42 l55 -18 7 -50 c20
-146 21 -170 5 -183 -26 -22 -240 26 -373 82 -175 75 -228 106 -232 138 -5 41
63 168 89 168 5 0 47 -16 94 -35z m1171 -122 c3 -10 17 -44 31 -77 17 -40 25
-78 27 -124 l1 -67 -70 -8 c-99 -12 -595 -3 -622 11 -18 10 -21 23 -25 109 -3
54 -8 106 -12 115 -13 30 22 35 204 26 173 -9 339 0 391 21 38 15 69 13 75 -6z
m1052 -140 c59 -71 193 -255 231 -320 60 -101 111 -222 111 -263 0 -62 -153
-233 -281 -312 -46 -29 -191 -69 -206 -57 -7 7 -13 16 -13 21 0 8 -22 68 -102
272 -6 15 -34 65 -61 109 -27 45 -60 104 -74 132 -14 27 -43 71 -64 97 -21 26
-39 53 -39 60 0 7 24 25 53 41 28 15 129 76 222 136 94 60 177 110 185 110 8
1 25 -11 38 -26z m-2621 -76 c43 -30 129 -82 190 -116 62 -35 123 -71 135 -81
l23 -18 -21 -44 c-12 -24 -50 -90 -84 -148 -107 -179 -157 -281 -175 -363 -9
-42 -21 -77 -25 -77 -4 0 -34 16 -66 35 -32 20 -77 40 -99 46 -85 21 -129 43
-202 103 -42 33 -85 68 -96 77 -17 14 -19 24 -14 70 10 87 36 148 97 234 32
44 66 96 75 115 10 19 45 77 77 128 48 73 65 92 83 92 13 0 59 -24 102 -53z
m1058 -223 c13 -5 14 -8 3 -15 -22 -14 -58 -10 -58 6 0 16 26 20 55 9z m1061
-106 c126 -210 149 -257 209 -410 42 -109 54 -158 39 -158 -4 0 -34 17 -68 38
-34 21 -91 53 -128 71 -107 53 -102 42 -106 273 -2 110 -1 206 2 214 9 24 26
15 52 -28z m-672 -17 c59 -11 113 -24 118 -29 6 -6 14 -147 20 -336 l10 -326
-24 -42 c-14 -26 -38 -50 -64 -63 l-41 -22 -119 18 c-78 12 -179 18 -292 18
l-172 1 -12 28 c-8 19 -12 139 -12 392 l-1 365 60 6 c145 14 419 9 529 -10z
m-1049 -211 l0 -204 -117 -40 c-82 -29 -120 -38 -128 -30 -22 22 45 183 145
349 23 38 50 85 59 103 34 67 41 37 41 -178z m225 6 c41 -9 86 -14 101 -11 44
10 53 -12 46 -126 -3 -55 -8 -103 -12 -107 -6 -6 -216 44 -247 60 -15 7 -18
24 -18 109 l0 101 28 -5 c15 -2 61 -12 102 -21z m1347 2 c6 -7 11 -57 12 -110
2 -88 0 -98 -18 -108 -18 -9 -181 -30 -261 -34 l-25 -1 0 105 0 105 30 3 c41
4 228 42 234 48 8 7 18 4 28 -8z"/>
<path d="M2915 4213 c-11 -10 -15 -25 -11 -42 25 -111 28 -145 22 -256 -14
-253 -32 -307 -141 -426 -36 -39 -65 -77 -65 -84 0 -18 28 -45 47 -45 28 0
147 133 180 201 40 80 48 119 64 297 17 197 -6 346 -56 366 -22 8 -21 8 -40
-11z"/>
<path d="M2555 3257 c-33 -18 -40 -28 -40 -52 0 -26 4 -30 32 -33 39 -4 109
31 118 58 16 50 -43 65 -110 27z"/>
<path d="M3405 1219 c-55 -28 -111 -56 -125 -63 -35 -17 -36 -45 -1 -93 64
-88 129 -201 151 -262 32 -87 40 -89 180 -54 112 28 114 29 146 73 18 25 33
55 33 68 1 12 -42 88 -96 171 -54 83 -106 163 -115 180 -24 44 -54 40 -173
-20z m116 -61 c9 -7 37 -49 64 -93 27 -44 64 -101 82 -127 19 -26 33 -55 31
-65 -3 -18 -48 -34 -126 -48 -40 -6 -43 -5 -59 25 -10 18 -46 77 -80 132 -34
55 -59 106 -57 113 5 11 109 74 125 75 3 0 12 -6 20 -12z"/>
<path d="M792 1258 c-36 -45 -141 -234 -147 -265 -4 -21 -16 -59 -27 -85 -31
-73 -22 -88 74 -131 46 -20 102 -43 126 -52 24 -8 55 -24 69 -35 14 -11 31
-20 37 -20 26 0 48 28 56 71 5 24 36 102 69 172 34 70 61 134 61 143 0 34 -25
56 -109 99 -49 24 -103 60 -122 79 -34 37 -69 46 -87 24z m136 -159 c40 -22
75 -46 78 -53 3 -7 -20 -65 -50 -129 -41 -87 -60 -117 -73 -117 -37 0 -168 57
-171 75 -12 58 84 265 123 265 11 0 53 -18 93 -41z"/>
<path d="M2005 874 c-71 -6 -92 -12 -98 -29 -11 -27 11 -446 24 -462 11 -12
42 -14 213 -8 111 4 209 12 218 17 10 5 25 23 34 40 14 28 16 57 11 208 -3 96
-8 182 -12 191 -12 32 -57 41 -200 44 -77 2 -162 1 -190 -1z m300 -100 c13
-13 15 -39 13 -157 l-3 -142 -143 -8 c-100 -6 -147 -6 -156 2 -17 14 -29 290
-14 308 7 9 50 13 149 13 113 0 140 -3 154 -16z"/>
</g>
</svg>
