<?xml version="1.0" standalone="no"?>
<!DOCTYPE svg PUBLIC "-//W3C//DTD SVG 20010904//EN"
 "http://www.w3.org/TR/2001/REC-SVG-20010904/DTD/svg10.dtd">
<svg version="1.0" xmlns="http://www.w3.org/2000/svg"
 width="442.000000pt" height="564.000000pt" viewBox="0 0 442.000000 564.000000"
 preserveAspectRatio="xMidYMid meet">

<g transform="translate(0.000000,564.000000) scale(0.100000,-0.100000)"
fill="#000000" stroke="none">
<path d="M2292 5468 c-8 -8 -12 -49 -12 -119 l0 -107 -44 -11 c-25 -6 -48 -17
-53 -23 -19 -32 -47 -307 -32 -322 39 -40 -39 -990 -143 -1748 -28 -206 -33
-228 -50 -228 -22 0 -60 -18 -70 -34 -4 -6 -8 -48 -8 -93 0 -75 2 -84 24 -100
l24 -18 -18 -50 c-10 -27 -41 -124 -70 -215 -29 -91 -73 -231 -100 -311 -26
-80 -51 -160 -55 -177 l-7 -32 -94 0 -94 0 0 -31 c0 -22 5 -32 20 -36 19 -5
20 -14 20 -119 0 -100 -2 -115 -17 -121 -26 -10 -34 -25 -27 -55 5 -26 -59
-149 -304 -578 -14 -25 -31 -54 -37 -65 -6 -11 -48 -86 -94 -167 l-83 -148
-40 0 c-71 0 -78 -9 -78 -104 0 -67 3 -85 16 -90 9 -3 172 -6 363 -6 257 0
350 3 359 12 15 15 16 160 1 175 -7 7 3 38 34 104 24 52 61 132 83 179 61 134
113 203 214 284 139 113 291 158 458 136 155 -20 261 -77 374 -199 58 -62 80
-100 172 -283 100 -203 104 -213 85 -226 -16 -11 -19 -25 -19 -86 0 -43 5 -77
12 -84 17 -17 719 -17 736 0 14 14 16 146 2 168 -5 8 -31 17 -61 20 l-53 5
-84 150 c-46 83 -104 186 -129 230 -26 44 -85 148 -131 230 -47 83 -92 164
-102 180 -78 138 -81 145 -70 165 9 17 6 24 -15 44 -24 22 -25 28 -25 132 0
104 1 110 23 119 14 7 22 19 22 35 0 24 -2 25 -89 30 l-89 5 -12 45 c-13 45
-118 377 -194 609 l-40 124 24 23 c22 20 25 31 25 96 0 86 -15 114 -65 124
-29 5 -34 10 -39 42 -33 229 -90 678 -101 802 -3 36 -14 153 -25 260 -29 289
-42 575 -39 845 2 227 -6 334 -27 355 -5 5 -27 15 -49 22 l-40 13 -3 110 c-3
106 -8 124 -37 125 -6 0 -16 -5 -23 -12z m102 -386 c3 -41 6 -88 6 -104 l0
-29 -82 3 -83 3 1 55 c1 30 5 76 9 101 6 41 11 48 39 56 19 5 45 5 67 -1 l36
-9 7 -75z m-1 -449 c11 -378 65 -948 148 -1558 10 -77 19 -146 19 -152 0 -10
-58 -13 -256 -13 -238 0 -255 1 -250 18 12 43 68 470 101 767 41 380 67 677
78 918 l10 227 72 0 72 0 6 -207z m265 -1845 l3 -48 -355 0 -356 0 0 43 c0 24
3 47 7 50 4 4 162 6 352 5 l346 -3 3 -47z m19 -333 c36 -110 91 -281 123 -380
32 -99 55 -183 51 -188 -4 -4 -77 -6 -162 -5 l-154 3 -26 165 c-15 91 -33 211
-42 268 -8 57 -21 109 -27 117 -18 21 -242 21 -263 1 -8 -8 -20 -52 -26 -98
-32 -223 -64 -434 -67 -445 -2 -10 -44 -13 -164 -13 -88 0 -160 3 -160 8 0 9
72 244 99 322 18 51 121 377 136 428 l6 22 306 -2 306 -3 64 -200z m-293 -97
c4 -14 52 -344 62 -425 l7 -53 -141 0 c-78 0 -143 3 -145 8 -5 10 39 318 52
363 6 20 11 52 11 71 0 19 3 38 7 41 12 13 143 8 147 -5z m606 -673 l0 -115
-692 2 -693 3 -3 113 -3 112 696 0 695 0 0 -115z m67 -272 c17 -26 84 -142
149 -258 277 -494 366 -650 376 -662 6 -7 28 -13 49 -13 35 0 39 -3 39 -25 l0
-25 -297 2 c-297 3 -298 3 -301 25 -2 16 3 22 19 25 52 7 47 24 -86 292 l-127
258 -92 92 c-74 74 -107 99 -176 133 -126 62 -192 76 -335 71 -162 -6 -265
-43 -385 -137 -132 -104 -198 -201 -320 -469 -93 -206 -102 -242 -59 -242 15
0 20 -6 17 -23 l-3 -22 -300 0 c-293 0 -300 0 -300 20 0 16 8 21 42 23 44 3
50 11 114 127 14 27 143 254 207 365 14 25 37 66 51 91 14 25 70 124 124 220
l98 174 733 3 733 4 30 -49z"/>
<path d="M2290 4155 c-11 -13 -31 -211 -58 -590 -5 -71 -18 -223 -28 -337 -14
-167 -16 -210 -6 -220 18 -18 193 -24 222 -8 20 11 21 17 16 83 -20 256 -59
730 -71 881 -8 98 -20 185 -26 192 -15 18 -34 18 -49 -1z m49 -820 c7 -99 15
-199 18 -222 l6 -43 -42 0 -41 0 0 63 c0 34 7 143 15 242 8 99 15 189 16 200
3 49 18 -76 28 -240z"/>
</g>
</svg>
