<?xml version="1.0" standalone="no"?>
<!DOCTYPE svg PUBLIC "-//W3C//DTD SVG 20010904//EN"
 "http://www.w3.org/TR/2001/REC-SVG-20010904/DTD/svg10.dtd">
<svg version="1.0" xmlns="http://www.w3.org/2000/svg"
 width="545.000000pt" height="458.000000pt" viewBox="0 0 545.000000 458.000000"
 preserveAspectRatio="xMidYMid meet">

<g transform="translate(0.000000,458.000000) scale(0.100000,-0.100000)"
fill="#000000" stroke="none">
<path d="M2213 2993 l-93 -4 -20 -39 c-15 -29 -20 -59 -20 -115 0 -65 -2 -75
-17 -75 -149 -1 -409 -26 -585 -56 -37 -7 -38 -6 -38 26 0 49 -29 101 -64 115
-17 7 -55 18 -83 26 -47 11 -60 11 -110 -5 -88 -28 -174 -75 -213 -116 -19
-21 -62 -52 -95 -70 -33 -18 -72 -41 -87 -51 -14 -11 -37 -19 -50 -19 -53 -1
-53 2 -56 -299 -3 -229 -6 -282 -18 -291 -18 -16 -18 -40 1 -98 14 -41 15
-119 13 -552 -2 -407 -6 -510 -17 -532 -11 -22 -12 -33 -1 -57 13 -31 73 -90
121 -118 15 -9 32 -27 38 -40 12 -26 24 -29 40 -9 10 11 24 10 93 -10 46 -13
130 -33 188 -45 117 -22 679 -89 807 -96 146 -7 1494 16 1632 28 132 12 134
12 152 -9 22 -28 27 -28 39 4 9 23 12 24 27 13 13 -12 18 -11 31 9 21 32 42
28 42 -8 0 -41 17 -38 35 8 14 35 25 42 133 92 94 44 129 66 179 115 l62 60
-15 64 c-8 35 -14 78 -12 95 l3 31 60 -1 c99 -2 252 -65 416 -170 287 -184
274 -340 -36 -428 -203 -58 -415 -81 -1275 -138 -128 -9 -418 -13 -845 -13
-692 0 -699 0 -1075 56 -372 54 -1009 208 -1141 274 -59 30 -125 87 -145 126
-25 50 -18 112 19 161 51 67 216 140 370 163 25 4 37 11 37 22 0 13 -8 15 -50
10 -122 -15 -272 -75 -345 -139 -58 -51 -75 -84 -75 -147 0 -62 10 -89 51
-136 76 -86 168 -122 559 -219 576 -143 873 -187 1401 -208 769 -30 2151 54
2519 153 170 46 270 129 270 224 0 104 -119 218 -375 357 l-100 55 3 65 c3 49
0 67 -12 77 -19 16 -20 9 -16 -75 2 -57 -10 -73 -34 -48 -11 10 -16 33 -16 69
0 63 -7 85 -26 85 -11 0 -14 -17 -14 -71 l0 -72 -50 6 c-28 3 -56 9 -62 13
-16 10 3 354 31 554 6 41 16 112 22 157 6 45 17 87 24 93 7 6 35 13 63 17 71
8 74 12 65 69 -7 43 -12 49 -40 57 -18 5 -47 22 -65 37 l-33 28 -5 178 -6 179
-38 78 c-54 108 -142 199 -216 222 -30 10 -93 37 -140 61 -47 23 -129 61 -183
84 l-97 41 -143 -16 c-78 -9 -145 -20 -149 -23 -4 -4 -10 -40 -14 -80 -7 -69
-8 -72 -33 -72 -23 0 -203 27 -303 46 -41 7 -41 6 -53 128 -3 33 -11 66 -17
73 -15 19 -36 16 -48 -7 -10 -19 -21 -20 -313 -19 -311 0 -398 6 -420 28 -9
10 -8 16 8 28 17 13 65 14 365 9 215 -3 332 -2 310 4 -37 10 -425 31 -495 28
-22 -1 -82 -4 -132 -5z m-73 -183 c0 -40 -4 -70 -10 -70 -6 0 -10 30 -10 70 0
40 4 70 10 70 6 0 10 -30 10 -70z m685 40 c38 -6 73 -16 77 -23 13 -20 9 -134
-4 -144 -17 -13 -251 -16 -509 -7 l-209 7 0 95 0 95 288 -6 c158 -4 318 -12
357 -17z m903 -50 c125 -49 207 -93 210 -114 3 -16 -1 -18 -30 -13 -47 7 -388
128 -388 138 0 11 27 16 83 18 32 1 74 -9 125 -29z m-2408 7 c0 -14 -111 -95
-133 -98 -31 -4 -57 2 -77 19 l-23 19 37 23 c71 43 196 67 196 37z m74 -33 c3
-9 6 -38 6 -65 l0 -49 -47 0 c-70 0 -124 11 -120 24 3 11 136 105 148 106 4 0
10 -7 13 -16z m2217 -40 c131 -38 246 -81 255 -95 8 -14 -29 -24 -171 -49 -71
-12 -162 -29 -202 -37 -39 -9 -83 -13 -98 -9 l-27 7 7 107 c4 59 10 111 12
116 8 13 94 -2 224 -40z m-1536 -44 c0 -12 -23 -17 -115 -23 -63 -4 -163 -16
-221 -27 -126 -24 -132 -24 -172 -6 -18 7 -43 18 -57 23 -23 9 -20 11 35 23
115 24 161 28 345 26 157 -1 185 -3 185 -16z m1099 -26 c83 -14 155 -29 159
-33 4 -5 5 -20 1 -35 -7 -31 -18 -32 -111 -10 -37 9 -106 22 -152 29 -87 14
-118 32 -108 59 8 22 34 20 211 -10z m-1950 -57 c144 -21 231 -37 234 -45 2
-6 -9 -23 -24 -37 -33 -30 -63 -31 -250 -10 -181 21 -327 48 -331 61 -5 14 86
64 117 63 14 0 128 -14 254 -32z m1667 0 c5 -20 4 -30 -6 -33 -7 -3 -175 -2
-374 3 -368 8 -392 11 -378 47 6 15 47 16 379 14 l372 -3 7 -28z m-803 -21 c2
-22 1 -49 -2 -62 -6 -22 -7 -23 -191 -23 -172 0 -185 1 -195 19 -40 75 52 110
280 107 l105 -2 3 -39z m1107 -28 l90 -23 3 -47 c4 -57 7 -56 -133 -33 -49 8
-107 15 -127 15 -34 0 -40 4 -58 40 -11 21 -20 49 -20 61 0 21 3 22 78 16 42
-4 118 -17 167 -29z m865 5 c16 -16 31 -39 32 -52 3 -22 -2 -26 -37 -32 -22
-5 -89 -20 -150 -34 -60 -14 -151 -28 -200 -32 l-91 -6 -27 32 c-37 44 -34 59
11 67 20 3 120 23 222 44 102 20 191 38 197 39 7 0 26 -11 43 -26z m-2404 -7
c9 -38 1 -61 -23 -64 -16 -2 -26 5 -38 28 -21 41 -13 60 24 60 24 0 32 -5 37
-24z m1722 -52 c27 -18 31 -78 6 -88 -30 -11 -54 12 -54 53 0 54 10 62 48 35z
m-2458 -18 c69 -14 175 -30 235 -36 171 -18 172 -18 179 -43 3 -12 6 -73 6
-135 l0 -113 -87 5 c-49 3 -132 8 -186 11 -102 6 -282 40 -304 57 -14 11 -19
258 -6 271 10 11 29 9 163 -17z m1971 7 c6 -6 9 -19 6 -27 -6 -14 -48 -16
-356 -16 -207 0 -360 4 -376 10 -22 9 -24 13 -15 31 11 20 15 21 370 17 259
-2 362 -6 371 -15z m-1356 -90 l8 -86 -51 -49 c-28 -26 -55 -48 -60 -48 -12 0
-22 60 -21 135 0 59 1 61 45 98 25 20 51 37 59 37 9 0 15 -24 20 -87z m2024
-40 c46 -58 61 -86 61 -110 0 -39 -9 -63 -23 -63 -17 0 -73 47 -111 93 -33 41
-34 45 -25 87 13 60 17 70 27 70 5 0 37 -35 71 -77z m576 -65 c0 -75 -4 -140
-8 -144 -10 -10 -307 -53 -372 -53 -77 -1 -79 2 -71 111 4 51 13 102 20 113
11 16 33 23 106 33 51 7 136 28 189 46 144 50 136 57 136 -106z m-1197 -55 c6
-76 14 -153 18 -170 5 -29 4 -33 -15 -33 -15 0 -28 14 -46 50 -29 56 -97 108
-222 168 l-76 36 -77 -12 c-42 -6 -115 -23 -160 -38 -85 -28 -119 -54 -193
-143 -24 -29 -32 -33 -59 -27 -17 3 -34 8 -37 11 -7 7 19 242 29 271 l10 24
408 0 409 0 11 -137z m1312 101 c14 -36 12 -128 -2 -142 -29 -29 -38 -13 -38
62 0 77 6 106 21 106 5 0 14 -12 19 -26z m-2515 -98 c50 -8 128 -18 175 -21
47 -4 88 -12 91 -17 3 -5 3 -25 0 -45 l-6 -35 -150 -4 c-167 -4 -330 7 -348
25 -21 21 99 126 133 116 8 -2 56 -11 105 -19z m881 0 c50 -18 147 -76 200
-121 31 -25 44 -46 53 -80 20 -81 -7 -218 -60 -303 -19 -31 -33 -71 -38 -106
-9 -65 -19 -79 -52 -74 -26 3 -26 2 -13 102 5 38 14 56 44 86 50 50 74 123 67
202 -7 80 -40 122 -132 168 -62 31 -78 35 -145 34 -62 0 -86 -6 -141 -32 -40
-18 -79 -46 -97 -67 -53 -64 -59 -168 -18 -267 9 -21 16 -56 16 -78 0 -27 7
-47 20 -60 20 -20 20 -20 75 7 l55 27 29 -22 c36 -26 45 -27 82 -5 27 16 29
16 48 -1 10 -9 21 -26 24 -37 4 -15 0 -19 -18 -19 -13 0 -37 -8 -53 -17 -28
-16 -30 -16 -64 5 -42 26 -88 28 -168 5 -73 -20 -85 -13 -94 60 -3 28 -17 84
-31 122 -28 79 -33 193 -13 273 24 95 119 160 285 196 88 19 93 19 139 2z
m829 -35 c17 -11 48 -35 70 -54 31 -28 37 -38 28 -48 -15 -16 -259 -24 -417
-14 l-117 7 3 57 3 56 55 6 c30 3 120 6 200 7 128 2 149 0 175 -17z m-2526
-56 c57 -13 105 -25 106 -27 2 -2 8 -73 14 -158 7 -85 13 -166 14 -180 3 -38
-30 -37 -147 4 -55 19 -112 36 -126 38 -17 2 -25 9 -25 23 0 15 9 21 35 25 97
16 171 81 151 132 -14 37 -34 48 -102 59 -78 12 -89 21 -89 69 0 45 7 53 40
45 14 -4 72 -18 129 -30z m3345 -31 c10 -26 7 -69 -7 -88 -7 -10 -35 -30 -62
-44 -42 -23 -50 -32 -50 -56 0 -26 8 -34 58 -63 31 -19 57 -39 57 -45 0 -6
-28 -40 -63 -74 l-63 -63 -59 6 c-33 3 -63 8 -66 12 -4 3 -8 82 -10 175 l-4
168 75 22 c41 12 93 32 115 44 48 25 71 27 79 6z m-2861 -22 c30 -17 70 -26
175 -38 75 -8 140 -18 145 -23 4 -4 7 -41 5 -81 l-3 -73 -57 -31 c-58 -31 -58
-31 -58 -78 0 -57 0 -57 145 -60 77 -2 110 2 145 16 64 25 80 43 80 87 0 48
-15 57 -124 72 l-81 12 -3 72 -3 72 47 7 c43 6 103 3 259 -14 l60 -7 6 -105
c5 -75 14 -126 33 -179 30 -84 36 -185 12 -194 -17 -7 -93 4 -226 32 -52 11
-162 25 -245 31 -164 12 -276 29 -400 61 -104 26 -245 69 -245 74 0 2 4 15 10
29 l9 26 108 -6 c97 -5 106 -4 89 10 -10 8 -42 18 -72 22 -56 7 -87 27 -59 38
8 3 51 3 96 -1 82 -6 115 -22 105 -49 -7 -20 11 -27 49 -20 37 7 55 41 55 103
0 41 -12 47 -130 67 -47 8 -92 17 -101 21 -11 4 -34 -9 -70 -40 -29 -25 -58
-44 -64 -42 -22 7 -33 185 -12 206 9 9 47 12 147 9 119 -3 140 -6 173 -26z
m2551 -74 c12 -62 23 -344 13 -356 -5 -7 -42 -22 -81 -33 -39 -12 -99 -35
-134 -52 l-63 -30 -122 16 c-149 21 -196 21 -289 2 -241 -48 -498 -79 -498
-59 0 5 7 27 15 49 8 22 14 55 15 74 0 20 15 61 35 97 21 38 43 98 54 148 10
46 21 88 24 94 4 5 33 19 67 31 57 21 66 22 217 12 86 -6 161 -15 165 -19 5
-5 13 -48 19 -97 9 -84 6 -125 -10 -125 -13 0 -49 44 -60 73 l-11 27 -108 0
c-134 0 -142 -5 -154 -90 -9 -71 -3 -83 73 -136 38 -26 41 -26 145 -19 97 6
108 9 139 36 l33 29 -6 154 -5 154 44 13 c27 7 114 13 221 13 97 1 180 5 184
9 4 4 22 7 40 7 27 0 35 -5 38 -22z m-3120 6 c9 -3 16 -12 16 -19 0 -26 -69
-35 -89 -12 -21 27 29 48 73 31z m3504 -60 c30 -21 28 -32 -12 -50 -31 -15
-36 -15 -70 1 -20 9 -36 23 -36 31 0 33 79 45 118 18z m-1869 -18 c18 -21 10
-97 -11 -110 -41 -25 -72 37 -49 97 12 30 41 36 60 13z m189 -29 c4 -35 -22
-77 -48 -77 -17 0 -20 7 -20 43 0 48 15 69 45 65 14 -2 21 -12 23 -31z m-1330
7 c36 -6 43 -23 10 -25 -39 -3 -112 2 -132 8 -19 5 -19 6 -2 18 17 13 34 12
124 -1z m2950 -52 c5 -15 -44 -16 -53 -2 -4 6 -4 18 -1 27 6 13 9 14 28 1 12
-8 24 -20 26 -26z m146 13 c-1 -5 -25 -19 -54 -29 -43 -16 -53 -17 -60 -5 -5
8 -5 19 1 26 17 20 115 27 113 8z m-2544 -55 c0 -19 -7 -20 -92 -20 l-93 1 24
19 c18 16 38 20 92 20 62 0 69 -2 69 -20z m1410 -20 c29 -41 21 -56 -37 -63
-43 -5 -51 -3 -70 19 -23 25 -30 54 -16 67 3 4 28 7 54 7 42 0 50 -4 69 -30z
m-1350 -9 c0 -5 -7 -14 -15 -21 -13 -10 -15 -9 -15 9 0 12 6 21 15 21 8 0 15
-4 15 -9z m-110 -46 c0 -11 -12 -15 -44 -15 -77 0 -67 26 12 29 22 1 32 -4 32
-14z m-987 -20 c34 -14 147 -48 251 -76 272 -72 253 -60 261 -161 3 -45 5
-126 3 -178 l-3 -95 -180 0 c-178 1 -181 1 -257 32 -42 16 -97 42 -122 57
l-46 27 0 203 c0 111 3 206 7 209 10 11 19 9 86 -18z m2275 -14 c3 -16 -1 -22
-10 -19 -7 3 -15 15 -16 27 -3 16 1 22 10 19 7 -3 15 -15 16 -27z m218 -16
c19 -15 19 -15 0 -30 -13 -10 -43 -15 -89 -15 -60 0 -68 2 -65 18 2 12 19 20
58 29 74 15 73 15 96 -2z m812 -98 c33 -35 52 -90 58 -171 l7 -74 -34 -11
c-35 -11 -112 -68 -236 -174 -68 -59 -68 -59 -121 -54 -83 9 -82 5 -82 203 l0
173 28 15 c15 8 61 24 102 36 41 13 93 31 115 41 35 16 100 35 131 38 6 1 20
-9 32 -22z m-2525 -57 c67 -6 161 -15 209 -19 49 -5 95 -14 103 -21 11 -9 15
-33 14 -94 -2 -137 -13 -264 -26 -277 -8 -8 -27 -9 -75 -1 -35 6 -123 18 -197
27 -173 20 -207 29 -215 58 -7 28 -8 342 0 349 3 4 19 2 35 -2 17 -5 85 -14
152 -20z m839 3 c28 -25 22 -33 -26 -33 -83 0 -123 31 -56 43 49 9 64 7 82
-10z m189 -13 c32 -18 22 -30 -24 -30 -50 0 -62 7 -46 27 14 16 43 17 70 3z
m889 -40 c36 -6 80 -12 98 -15 l32 -6 0 -174 c0 -205 -1 -207 -84 -198 -38 4
-84 -1 -149 -16 -67 -15 -119 -21 -178 -19 l-84 3 0 197 c0 108 3 199 6 202
12 13 147 34 219 35 41 0 104 -4 140 -9z m-1454 -84 c11 -28 -35 -736 -49
-753 -14 -20 -35 -15 -52 10 -13 20 -13 38 1 157 8 74 21 153 29 175 8 23 19
114 25 217 6 98 13 184 16 193 8 19 23 19 30 1z m90 -153 c-14 -328 -34 -595
-44 -605 -23 -23 -42 0 -42 52 0 72 39 692 45 708 2 6 14 12 26 12 l22 0 -7
-167z m80 -129 c-29 -504 -28 -493 -60 -481 -20 8 -20 10 5 417 17 282 23 337
37 348 9 7 20 8 25 3 5 -5 2 -127 -7 -287z m732 124 c3 -93 0 -166 -7 -187 -6
-20 -14 -121 -19 -226 l-7 -190 -25 0 c-29 0 -28 -42 -5 363 8 140 15 284 15
321 0 68 14 101 35 81 6 -7 11 -75 13 -162z m-648 102 c0 -121 -41 -695 -50
-704 -29 -29 -29 23 5 589 9 143 15 175 31 175 11 0 14 -14 14 -60z m117 44
c6 -17 -23 -597 -35 -694 l-7 -55 -38 -3 -38 -3 5 58 c3 32 8 130 11 218 6
171 21 396 31 458 5 33 9 37 35 37 18 0 32 -6 36 -16z m93 -11 c0 -29 -11
-214 -31 -543 -6 -102 -16 -190 -21 -197 -5 -6 -16 -9 -25 -6 -13 5 -14 25 -8
142 16 327 35 612 40 621 3 6 15 10 26 10 14 0 19 -7 19 -27z m89 13 c9 -11 9
-81 -3 -303 -21 -383 -25 -431 -43 -449 -32 -32 -38 -11 -35 132 4 232 30 605
43 620 15 18 24 18 38 0z m252 -347 c-12 -189 -24 -359 -27 -376 -6 -34 -21
-43 -30 -19 -8 22 36 718 48 739 27 52 29 -10 9 -344z m-171 269 c0 -92 -28
-594 -36 -645 -5 -31 -28 -46 -36 -23 -2 6 0 61 4 123 4 62 14 224 22 360 9
137 18 253 21 258 17 26 25 1 25 -73z m110 25 c0 -32 -4 -130 -10 -218 -5 -88
-12 -209 -15 -270 -11 -212 -22 -248 -64 -206 -23 23 -26 51 -12 132 6 30 17
176 26 324 9 149 18 276 20 283 2 6 16 12 30 12 24 0 25 -3 25 -57z m1366
-150 c-3 -43 -9 -132 -12 -198 -7 -138 -10 -142 -119 -219 -72 -52 -96 -61
-107 -44 -4 7 -8 88 -8 180 l0 167 64 56 c81 72 165 135 178 135 7 0 9 -26 4
-77z m-3314 -5 l109 -43 -2 -90 c-1 -66 -21 -291 -28 -322 -1 -2 -5 -3 -11 -3
-5 0 -14 19 -21 43 -23 87 -53 92 -43 7 6 -51 4 -60 -9 -60 -21 0 -42 34 -57
90 -6 25 -24 58 -38 73 -27 28 -27 31 -30 188 -3 122 0 159 9 159 7 0 61 -19
121 -42z m618 -81 c91 -15 191 -29 224 -32 58 -7 58 -7 52 -35 -3 -16 -8 -103
-11 -192 -3 -90 -8 -183 -11 -206 -5 -39 -8 -43 -27 -38 -72 20 -218 37 -402
46 -169 9 -218 15 -254 31 l-43 19 6 52 c3 29 10 112 16 183 15 176 18 193 38
199 38 11 256 -3 412 -27z m2310 -60 l65 -12 3 -135 c2 -74 0 -155 -3 -178 -6
-41 -8 -43 -32 -37 -21 5 -31 1 -48 -21 l-22 -28 -24 37 c-13 20 -30 37 -36
37 -16 0 -17 -32 -2 -47 24 -24 2 -43 -50 -43 -87 0 -101 30 -101 218 0 178 0
178 58 186 26 4 58 13 72 21 30 17 37 17 120 2z m-1853 -53 c6 -16 -14 -282
-23 -316 -3 -10 -10 -18 -16 -18 -12 0 -6 304 6 333 10 21 25 22 33 1z m1083
-23 c5 -11 10 -86 10 -171 0 -151 0 -151 -22 -148 -22 3 -23 7 -26 128 -4 181
8 245 38 191z m164 -3 c9 -35 7 -271 -3 -287 -22 -34 -31 4 -31 132 0 131 5
177 20 177 4 0 10 -10 14 -22z m80 14 c7 -12 -13 -251 -23 -277 -19 -48 -24
214 -6 273 5 14 21 16 29 4z m76 -114 c0 -158 -7 -198 -31 -198 -18 0 -19 10
-19 153 0 85 3 157 7 160 3 4 15 7 25 7 16 0 18 -10 18 -122z m-230 -54 c0
-142 -1 -155 -17 -152 -23 4 -30 41 -32 163 -1 118 5 145 30 145 18 0 19 -10
19 -156z m-2350 0 c0 -16 -16 -19 -25 -4 -8 13 4 32 16 25 5 -4 9 -13 9 -21z
m3375 -85 c-11 -17 -87 -69 -102 -69 -22 0 -5 19 45 51 48 30 68 37 57 18z
m-801 -173 c-9 -29 -20 -40 -33 -32 -15 10 -14 73 2 79 18 7 38 -24 31 -47z
m-84 9 c0 -29 -16 -41 -24 -19 -8 21 3 56 15 49 5 -4 9 -17 9 -30z m-127 8
c18 -17 19 -17 33 2 13 17 16 18 24 5 6 -8 9 -24 8 -35 -3 -17 -12 -20 -60
-23 -52 -3 -58 -1 -58 17 0 50 20 63 53 34z m-1183 -13 c12 -23 6 -40 -15 -40
-17 0 -38 36 -30 50 10 17 34 11 45 -10z m1098 3 c14 -27 3 -43 -29 -43 -21 0
-29 5 -29 18 0 38 42 56 58 25z m-1020 -10 c-5 -25 -28 -28 -28 -4 0 12 6 21
16 21 9 0 14 -7 12 -17z m160 11 c30 -8 28 -32 -4 -44 -45 -18 -102 -12 -114
10 -6 11 -8 25 -5 30 7 11 87 13 123 4z m589 -27 c-2 -7 -18 -13 -35 -15 -26
-3 -32 0 -32 17 0 11 8 21 18 24 23 5 54 -11 49 -26z m181 21 c7 -7 12 -18 12
-25 0 -18 -76 -17 -83 1 -12 30 45 50 71 24z m-675 -11 c7 -19 -8 -41 -22 -33
-16 10 -14 46 3 46 8 0 16 -6 19 -13z m115 -9 c-2 -17 -11 -24 -32 -26 -33 -4
-51 10 -43 32 4 11 19 16 42 16 32 0 36 -3 33 -22z m92 3 c0 -24 -25 -34 -40
-16 -15 18 -5 35 21 35 12 0 19 -7 19 -19z m108 7 c21 -21 13 -29 -25 -26 -27
2 -39 8 -41 21 -3 13 3 17 25 17 16 0 34 -5 41 -12z m62 -3 c0 -16 -27 -32
-37 -22 -3 4 -3 13 0 22 8 20 37 20 37 0z m190 1 c0 -8 -5 -18 -11 -22 -14 -8
-33 11 -25 25 10 16 36 13 36 -3z"/>
<path d="M3778 1935 c-3 -3 -42 -10 -88 -15 -48 -5 -90 -16 -99 -25 -10 -8
-23 -38 -30 -66 -13 -48 -12 -53 5 -66 33 -24 46 -17 38 22 -3 19 -4 42 0 50
5 14 9 14 36 0 32 -17 33 -19 30 -79 l-2 -39 69 6 c124 12 177 37 171 80 -2
12 -14 27 -26 33 -13 7 -32 25 -42 40 -20 34 -54 66 -62 59z m12 -60 c40 -21
38 -41 -4 -49 -37 -7 -97 12 -111 34 -19 30 65 41 115 15z m-20 -105 c0 -5
-11 -10 -25 -10 -14 0 -25 5 -25 10 0 6 11 10 25 10 14 0 25 -4 25 -10z"/>
<path d="M4541 1049 c-15 -43 -14 -59 3 -59 17 0 26 22 26 61 0 38 -15 37 -29
-2z"/>
<path d="M340 797 c0 -7 9 -37 20 -67 11 -30 20 -56 20 -57 0 -2 5 -3 10 -3
26 0 -7 123 -36 134 -8 3 -14 0 -14 -7z"/>
<path d="M492 779 c2 -18 9 -34 16 -37 10 -3 13 5 10 29 -2 18 -9 34 -16 37
-10 3 -13 -5 -10 -29z"/>
<path d="M418 795 c-3 -3 -2 -20 1 -37 8 -39 31 -50 31 -15 0 43 -15 68 -32
52z"/>
<path d="M4430 719 c0 -6 4 -28 10 -48 5 -20 14 -55 20 -78 6 -24 16 -43 22
-43 14 0 5 109 -13 146 -15 29 -39 44 -39 23z"/>
<path d="M4545 708 c-9 -24 -1 -128 10 -131 13 -3 19 123 6 136 -7 7 -12 5
-16 -5z"/>
<path d="M4620 670 c0 -25 4 -31 18 -28 11 2 17 12 17 28 0 16 -6 26 -17 28
-14 3 -18 -3 -18 -28z"/>
<path d="M1210 472 c0 -12 13 -36 30 -54 l29 -33 1 26 c0 15 -12 36 -30 54
-29 27 -30 28 -30 7z"/>
<path d="M1300 477 c0 -24 21 -77 31 -77 17 0 21 28 7 56 -14 31 -38 44 -38
21z"/>
<path d="M1407 473 c-14 -13 -7 -63 8 -63 10 0 15 11 15 35 0 33 -8 43 -23 28z"/>
</g>
</svg>
