<?xml version="1.0" standalone="no"?>
<!DOCTYPE svg PUBLIC "-//W3C//DTD SVG 20010904//EN"
 "http://www.w3.org/TR/2001/REC-SVG-20010904/DTD/svg10.dtd">
<svg version="1.0" xmlns="http://www.w3.org/2000/svg"
 width="474.000000pt" height="464.000000pt" viewBox="0 0 474.000000 464.000000"
 preserveAspectRatio="xMidYMid meet">

<g transform="translate(0.000000,464.000000) scale(0.100000,-0.100000)"
fill="#000000" stroke="none">
<path d="M1762 4256 c-6 -14 -9 -39 -6 -54 4 -21 -3 -47 -25 -90 -17 -33 -35
-63 -41 -67 -14 -8 -13 -42 2 -51 13 -8 53 35 80 84 9 18 21 32 25 32 5 0 24
-26 43 -57 26 -44 36 -73 40 -118 5 -56 7 -60 30 -60 21 0 25 6 35 55 15 71
45 160 54 160 4 0 24 -49 44 -109 48 -141 51 -232 11 -280 -25 -30 -27 -61 -3
-61 6 0 27 16 45 36 33 35 34 37 34 122 0 75 -5 102 -39 200 -22 62 -43 142
-46 177 -7 63 -19 81 -44 65 -7 -4 -27 -49 -45 -101 -18 -51 -37 -94 -42 -96
-5 -1 -28 28 -51 65 -31 51 -43 80 -45 117 -2 42 -6 50 -24 53 -14 2 -24 -5
-32 -22z"/>
<path d="M2950 4170 c-178 -11 -418 -51 -548 -90 -88 -27 -102 -36 -102 -67 0
-15 -9 -45 -20 -68 -19 -39 -19 -47 -7 -162 8 -73 19 -130 29 -145 15 -22 14
-26 -4 -48 -18 -22 -20 -35 -15 -102 6 -91 15 -87 -127 -62 -74 12 -155 15
-421 12 -328 -4 -331 -4 -415 -32 -47 -15 -128 -40 -181 -57 -78 -24 -103 -37
-134 -69 l-38 -38 -6 -124 c-3 -68 -4 -186 -1 -263 4 -89 2 -146 -5 -157 -12
-19 -232 -201 -325 -268 -67 -48 -111 -97 -155 -174 l-28 -48 6 -217 c4 -119
12 -256 17 -306 6 -49 15 -214 20 -365 13 -371 24 -510 44 -548 9 -17 16 -41
16 -53 0 -56 101 -181 158 -196 21 -5 23 -10 17 -39 -8 -46 42 -141 112 -210
29 -29 53 -56 53 -61 0 -37 142 -79 318 -93 65 -5 135 -14 157 -20 50 -12 232
-13 305 -1 48 8 379 14 624 12 43 0 140 8 215 19 75 11 136 20 137 20 1 0 11
9 24 20 13 12 37 20 57 20 19 0 43 5 54 11 48 25 172 251 194 352 3 15 14 35
24 45 10 9 33 30 51 47 18 16 42 49 52 72 29 66 65 82 168 74 87 -6 298 1 520
17 116 9 197 28 262 63 18 10 34 56 43 129 5 36 12 50 38 68 104 73 248 243
310 368 41 80 51 235 36 524 -7 129 -13 375 -14 545 -1 188 -7 326 -13 350 -6
22 -10 65 -9 96 2 55 1 58 -48 110 -28 30 -66 74 -85 98 -58 72 -348 282 -440
318 -36 14 -42 14 -65 -1 -46 -30 -33 -49 75 -109 63 -34 237 -156 296 -207
16 -14 58 -59 94 -100 36 -41 69 -78 75 -82 12 -9 14 -55 20 -398 2 -151 9
-349 14 -440 9 -136 14 -341 12 -447 -1 -17 -7 -23 -22 -23 -11 0 -33 -9 -49
-20 -55 -39 -249 -110 -375 -136 -112 -24 -311 -44 -430 -44 -99 0 -201 -10
-277 -26 -20 -4 -28 -12 -28 -26 0 -19 4 -20 53 -14 28 3 142 10 252 15 285
14 411 34 610 96 61 19 142 50 180 69 43 22 74 31 79 25 15 -14 -40 -165 -85
-235 -22 -33 -75 -95 -119 -138 -73 -72 -81 -77 -112 -71 -18 3 -73 1 -123 -5
-345 -40 -472 -49 -565 -40 -52 5 -120 10 -151 10 l-57 0 -6 83 c-4 45 -12
120 -18 167 -6 46 -11 147 -12 224 -1 114 2 140 14 146 8 4 39 22 69 39 61 36
81 34 81 -7 0 -30 -23 -57 -77 -88 -63 -36 -31 -68 35 -35 60 31 92 74 92 125
0 46 -13 63 -63 84 -26 11 -32 9 -74 -23 -80 -61 -83 -57 -83 105 0 164 -2
161 105 149 170 -19 310 -3 660 77 294 67 425 117 441 168 11 32 -10 37 -48
11 -20 -14 -42 -25 -47 -25 -6 0 -36 -11 -68 -25 -88 -39 -377 -109 -608 -146
-108 -18 -153 -20 -269 -15 -77 4 -145 11 -153 17 -7 7 -13 31 -13 56 0 80
-47 150 -220 327 -166 170 -214 203 -385 267 l-70 27 0 193 0 194 26 8 c21 8
30 5 58 -23 l32 -33 152 7 c84 3 182 9 219 12 60 6 68 4 74 -12 11 -38 22 -49
47 -52 40 -5 50 27 54 168 2 69 6 135 9 148 5 26 40 30 70 7 55 -42 183 17
229 105 25 48 12 96 -36 142 -21 20 -35 39 -31 41 4 3 28 8 54 11 l47 7 20
-67 c25 -80 27 -136 4 -174 -14 -24 -15 -34 -5 -54 15 -34 51 -34 83 0 20 22
24 38 28 105 5 125 -32 219 -88 219 -15 0 -33 10 -46 26 -18 23 -29 26 -85 27
l-65 2 -3 32 c-2 18 -11 37 -20 42 -9 4 -68 11 -130 14 -113 7 -113 7 -138
-20 l-24 -26 -202 12 c-298 18 -452 44 -421 71 14 13 163 48 288 69 360 61
872 64 960 7 24 -16 25 -21 28 -124 3 -134 0 -242 -7 -308 -5 -41 -2 -57 12
-74 26 -32 58 -19 73 28 14 47 22 497 9 522 -15 27 -142 69 -244 80 -102 11
-361 11 -536 0z m-410 -346 c80 -8 213 -19 296 -23 83 -5 160 -13 171 -19 13
-7 23 -26 27 -52 8 -51 -4 -419 -14 -425 -19 -12 -298 -35 -394 -33 -103 2
-109 3 -119 26 -6 13 -36 36 -69 53 l-58 29 0 55 c0 30 1 55 3 55 1 0 38 -6
82 -14 44 -8 141 -20 215 -27 122 -11 138 -10 167 5 34 17 38 27 48 112 8 74
0 78 -190 98 -190 20 -273 36 -309 59 -22 15 -26 25 -26 67 0 33 4 50 13 50 6
0 77 -7 157 -16z m610 0 c0 -8 -5 -12 -10 -9 -6 4 -8 11 -5 16 9 14 15 11 15
-7z m188 -212 c4 -26 -22 -31 -32 -6 -10 26 -7 36 12 32 9 -2 18 -13 20 -26z
m-916 -1 c13 -4 86 -16 163 -25 190 -22 205 -25 205 -38 0 -12 -188 -3 -275
13 -79 15 -155 39 -155 49 0 12 31 13 62 1z m788 -1 c0 -10 -52 -40 -70 -40
-5 0 -10 11 -10 25 0 23 4 25 40 25 22 0 40 -4 40 -10z m-1016 -301 c66 -11
126 -25 133 -31 10 -8 13 -67 13 -247 0 -174 3 -242 13 -254 6 -9 48 -30 92
-48 177 -69 230 -104 370 -244 72 -71 147 -150 166 -175 l34 -44 6 -411 c3
-232 11 -440 17 -480 15 -91 34 -369 26 -389 -3 -9 -16 -16 -27 -16 -12 0 -37
-11 -58 -25 -25 -18 -64 -31 -125 -41 -49 -8 -156 -28 -239 -44 -155 -30 -344
-48 -595 -57 -119 -4 -167 -1 -264 16 -141 25 -156 25 -182 7 -31 -23 -1 -42
91 -55 44 -6 105 -16 135 -22 30 -5 100 -10 155 -11 117 0 574 37 625 52 19 5
112 23 206 39 145 25 179 34 220 60 56 36 67 29 62 -41 -2 -33 -8 -45 -26 -54
-12 -6 -37 -33 -54 -60 -17 -27 -64 -83 -105 -125 l-74 -76 -87 -7 c-48 -4
-132 -16 -187 -27 -84 -17 -120 -19 -236 -13 -79 4 -247 1 -396 -6 -251 -12
-482 -5 -593 18 l-35 8 -6 134 c-4 74 -11 264 -18 422 -6 158 -16 336 -22 395
-6 60 -14 209 -18 333 -6 209 -7 225 -25 228 -10 2 -22 -2 -27 -10 -14 -21
-10 -349 6 -523 8 -88 15 -246 15 -352 0 -118 6 -235 15 -302 9 -61 14 -157
13 -213 l-3 -103 -135 0 c-98 1 -149 5 -185 17 -27 9 -61 18 -75 20 -13 2 -29
13 -35 24 -6 12 -32 42 -58 67 -26 26 -47 51 -47 58 0 6 -9 24 -20 39 -24 34
-36 166 -49 555 -8 224 -8 251 7 263 9 6 24 12 34 12 23 0 34 26 18 45 -6 7
-26 15 -43 17 -29 3 -32 6 -35 42 -5 59 1 66 43 53 30 -9 38 -8 52 6 15 15 15
19 3 30 -8 8 -36 21 -61 31 -46 17 -47 18 -53 69 -3 29 -7 113 -8 187 l-2 136
31 44 c38 54 74 89 173 164 41 31 111 86 154 121 44 36 90 68 103 71 14 4 53
-7 106 -30 127 -55 164 -66 267 -81 126 -20 249 -19 286 0 16 8 39 15 50 15
39 0 49 27 54 144 l5 111 25 -2 c153 -15 240 -15 291 2 75 25 140 59 165 87
48 52 56 165 19 239 -20 39 -64 89 -78 89 -6 0 -28 9 -51 19 -73 34 -423 54
-475 27 -55 -29 -460 -8 -495 25 -15 14 -4 19 131 59 l128 39 314 0 c273 1
330 -2 435 -20z m-1045 -185 c72 -25 228 -44 362 -44 84 0 131 -4 142 -13 16
-11 17 -35 15 -252 l-3 -240 -125 0 c-158 1 -246 21 -370 83 l-95 47 0 60 c0
54 2 60 20 58 98 -9 315 -47 332 -59 27 -17 67 -18 80 -1 9 11 33 126 33 156
0 6 -9 20 -20 31 -18 18 -34 20 -147 20 -140 0 -267 25 -290 57 -14 18 -18 95
-6 106 9 10 23 8 72 -9z m1003 -57 c51 -42 65 -130 26 -167 -22 -21 -94 -47
-103 -38 -3 2 4 22 15 43 25 49 25 69 0 124 -11 24 -20 47 -20 52 0 17 55 8
82 -14z m-164 -99 c3 -23 -1 -28 -25 -34 -36 -9 -73 -42 -73 -67 0 -17 -5 -19
-47 -12 -27 4 -51 9 -55 12 -5 2 -8 31 -8 63 0 69 -1 69 120 67 85 -2 85 -2
88 -29z m2010 -1955 l-3 -58 -48 -24 c-41 -20 -75 -26 -200 -35 -171 -12 -552
-15 -563 -3 -8 8 -8 136 0 145 3 3 74 -1 158 -8 118 -10 175 -10 248 -2 52 6
147 16 210 23 63 6 117 13 119 15 2 2 22 4 43 4 l39 0 -3 -57z m-1134 -520
c-18 -76 -78 -163 -127 -186 -79 -38 -347 -77 -469 -69 -49 3 -95 0 -125 -9
-31 -9 -111 -14 -223 -15 -96 0 -248 -5 -337 -9 -113 -6 -179 -5 -220 4 -32 6
-106 16 -165 21 -59 5 -134 17 -168 27 -56 16 -67 24 -111 80 -58 74 -61 88
-16 79 17 -4 113 -11 212 -16 99 -6 216 -15 260 -21 100 -13 330 -15 736 -6
247 5 326 10 360 22 24 9 94 27 155 40 65 13 135 36 170 54 73 37 76 37 68 4z"/>
<path d="M2821 2338 c-24 -11 -72 -28 -105 -38 -34 -10 -94 -30 -134 -44 -96
-35 -382 -83 -612 -102 -146 -13 -260 -15 -540 -10 -195 4 -411 11 -480 17
-293 22 -334 23 -349 5 -23 -27 3 -46 65 -46 29 0 86 -5 126 -10 100 -14 549
-33 798 -34 297 -1 630 31 869 83 106 23 339 99 401 131 42 21 54 53 24 64 -9
3 -16 6 -17 5 -1 0 -22 -10 -46 -21z"/>
<path d="M999 2023 c-22 -26 -19 -510 3 -623 12 -57 21 -175 27 -355 10 -281
24 -412 47 -442 12 -17 14 -17 30 -1 16 16 16 25 6 95 -7 43 -16 199 -22 348
-6 148 -17 310 -25 360 -10 62 -15 170 -15 351 0 189 -3 263 -12 272 -16 16
-23 15 -39 -5z"/>
<path d="M2862 1584 c-99 -45 -343 -99 -647 -144 -128 -18 -162 -19 -400 -11
-266 9 -299 6 -293 -27 5 -25 71 -30 390 -34 153 -2 278 -5 278 -8 0 -4 -6
-12 -12 -18 -9 -9 -14 -57 -16 -146 -4 -145 4 -180 40 -174 20 3 21 10 23 143
1 77 3 147 4 155 2 8 0 24 -4 36 -6 20 2 22 162 48 253 41 537 120 582 162 21
19 6 44 -26 43 -15 0 -52 -11 -81 -25z"/>
<path d="M2776 1381 c-29 -32 -58 -139 -57 -214 0 -75 4 -87 31 -87 23 0 30
19 31 88 0 31 8 82 18 112 15 44 23 56 42 58 l24 4 -22 -24 c-27 -29 -29 -55
-6 -80 14 -16 15 -23 3 -57 -14 -43 -8 -61 20 -61 40 0 66 75 34 101 -11 9
-14 22 -10 42 3 17 1 36 -5 44 -9 10 -9 20 1 39 17 30 8 40 -45 49 -33 5 -44
2 -59 -14z"/>
<path d="M1424 1355 c-4 -8 -4 -104 -2 -213 5 -198 15 -255 45 -266 29 -11 36
5 28 68 -4 33 -10 142 -14 241 -6 177 -6 180 -29 183 -13 2 -25 -3 -28 -13z"/>
<path d="M1670 1239 c-19 -34 -8 -178 16 -219 32 -55 73 -70 191 -70 99 0 104
1 135 29 27 24 32 36 36 89 5 70 11 65 -95 82 -50 8 -86 21 -115 41 -51 34
-54 35 -68 9 -21 -39 61 -91 183 -115 25 -5 28 -10 25 -38 l-3 -32 -75 -3
c-152 -6 -170 9 -179 151 -5 75 -9 92 -23 95 -9 2 -22 -7 -28 -19z"/>
<path d="M2500 1245 c-10 -11 -9 -26 1 -67 7 -29 13 -66 14 -81 3 -42 33 -59
55 -32 24 29 -18 195 -49 195 -5 0 -14 -7 -21 -15z"/>
<path d="M2390 1200 c0 -12 9 -38 20 -60 11 -22 20 -46 20 -53 0 -8 8 -25 19
-38 16 -20 21 -21 35 -10 23 19 20 42 -13 116 -25 55 -34 65 -55 65 -20 0 -26
-5 -26 -20z"/>
<path d="M2297 1163 c-13 -43 -17 -99 -8 -111 15 -24 44 -9 53 27 15 54 7 95
-19 99 -14 2 -23 -3 -26 -15z"/>
<path d="M1465 4098 c-2 -7 -5 -26 -7 -43 -3 -26 -12 -35 -69 -65 -142 -75
-175 -118 -165 -211 7 -70 32 -136 57 -149 40 -22 129 3 129 36 0 21 -24 28
-50 14 -41 -22 -67 -5 -79 50 -24 113 -5 146 132 217 54 28 77 47 91 74 19 35
19 38 3 63 -19 28 -35 33 -42 14z"/>
<path d="M1548 4016 c-9 -20 -7 -32 11 -67 31 -58 71 -109 87 -109 27 0 24 22
-10 78 -22 35 -36 70 -36 90 0 25 -4 32 -20 32 -12 0 -25 -10 -32 -24z"/>
<path d="M1725 3799 c-19 -17 -43 -45 -53 -61 -13 -22 -23 -28 -40 -25 -33 6
-47 -25 -33 -74 20 -68 73 -169 87 -169 23 0 28 29 11 65 -26 55 1 204 36 192
17 -5 37 -96 27 -123 -13 -34 -5 -48 41 -68 l41 -18 29 28 c35 34 49 79 49
160 0 50 -3 63 -17 69 -18 6 -57 -31 -69 -67 -16 -50 -59 26 -47 83 8 41 -21
44 -62 8z m135 -176 c0 -5 -4 -15 -10 -23 -11 -18 -25 -7 -17 15 6 15 27 21
27 8z"/>
<path d="M930 3795 c-20 -24 -5 -66 52 -152 29 -44 58 -88 64 -98 6 -11 15
-15 22 -11 23 14 12 54 -30 116 -60 87 -68 101 -68 133 0 30 -20 36 -40 12z"/>
<path d="M577 3413 c-22 -22 10 -90 54 -113 10 -6 51 -17 91 -24 40 -8 83 -17
96 -21 18 -6 22 -4 22 14 0 29 -35 48 -105 56 -70 8 -99 24 -120 65 -15 30
-26 36 -38 23z"/>
<path d="M3955 2929 c-82 -31 -97 -42 -88 -66 8 -20 49 -15 133 15 66 24 75
30 75 52 0 35 -24 35 -120 -1z"/>
<path d="M3710 2820 c-14 -5 -99 -14 -190 -20 -91 -6 -203 -15 -250 -20 -47
-6 -179 -10 -295 -9 -115 0 -216 0 -222 0 -7 -1 -13 -12 -13 -26 0 -18 7 -26
26 -31 38 -10 543 3 644 15 47 6 139 15 205 20 136 10 175 23 175 58 0 19 -5
23 -27 22 -16 0 -39 -4 -53 -9z"/>
<path d="M4140 2065 c-17 -20 -4 -35 31 -35 19 0 29 -5 29 -15 0 -14 -34 -29
-56 -24 -40 7 -47 -26 -8 -41 50 -20 83 -12 104 23 26 42 25 53 -5 82 -27 28
-76 33 -95 10z"/>
<path d="M3564 2057 c-11 -29 7 -37 84 -38 43 0 101 -8 132 -17 l54 -17 13
-60 c7 -33 12 -88 13 -122 0 -55 2 -63 19 -63 27 0 31 19 29 140 -2 95 -4 107
-25 126 -35 32 -118 55 -220 61 -79 5 -94 3 -99 -10z"/>
<path d="M3469 2024 c-22 -26 -25 -208 -5 -278 22 -74 43 -88 122 -78 l59 7 7
65 c11 115 31 140 79 101 19 -15 25 -32 29 -83 4 -55 8 -63 25 -63 17 0 20 8
23 55 4 86 -32 135 -137 186 -22 11 -37 -20 -56 -117 -16 -80 -21 -92 -43
-100 -14 -5 -31 -8 -38 -5 -24 9 -36 88 -33 205 4 117 -3 140 -32 105z"/>
<path d="M4011 1992 c-14 -26 2 -165 23 -197 9 -14 29 -27 44 -30 15 -4 35 -8
44 -10 22 -4 42 20 35 44 -7 28 9 48 47 55 43 8 62 29 42 46 -12 9 -26 8 -69
-4 -59 -17 -73 -29 -79 -63 -2 -16 -7 -20 -16 -14 -8 5 -19 45 -25 96 -12 89
-27 113 -46 77z"/>
</g>
</svg>
